<?xml version="1.0" encoding="utf-8" standalone="no"?>
<!DOCTYPE svg PUBLIC "-//W3C//DTD SVG 1.1//EN"
  "http://www.w3.org/Graphics/SVG/1.1/DTD/svg11.dtd">
<svg xmlns:xlink="http://www.w3.org/1999/xlink" width="414pt" height="180pt" viewBox="0 0 414 180" xmlns="http://www.w3.org/2000/svg" version="1.1">
 <metadata>
  <rdf:RDF xmlns:dc="http://purl.org/dc/elements/1.1/" xmlns:cc="http://creativecommons.org/ns#" xmlns:rdf="http://www.w3.org/1999/02/22-rdf-syntax-ns#">
   <cc:Work>
    <dc:type rdf:resource="http://purl.org/dc/dcmitype/StillImage"/>
    <dc:date>2026-05-08T00:34:27.528664</dc:date>
    <dc:format>image/svg+xml</dc:format>
    <dc:creator>
     <cc:Agent>
      <dc:title>Matplotlib v3.10.7, https://matplotlib.org/</dc:title>
     </cc:Agent>
    </dc:creator>
   </cc:Work>
  </rdf:RDF>
 </metadata>
 <defs>
  <style type="text/css">*{stroke-linejoin: round; stroke-linecap: butt}</style>
 </defs>
 <g id="figure_1">
  <g id="patch_1">
   <path d="M 0 180 
L 414 180 
L 414 0 
L 0 0 
L 0 180 
z
" style="fill: none"/>
  </g>
  <g id="axes_1">
   <g id="patch_2">
    <path d="M 54.354531 139.811563 
L 403.2 139.811563 
L 403.2 10.8 
L 54.354531 10.8 
L 54.354531 139.811563 
z
" style="fill: none"/>
   </g>
   <g id="matplotlib.axis_1">
    <g id="xtick_1">
     <g id="line2d_1">
      <defs>
       <path id="mba8541a9f6" d="M 0 0 
L 0 3.5 
" style="stroke: #000000; stroke-width: 0.8"/>
      </defs>
      <g>
       <use xlink:href="#mba8541a9f6" x="70.127928" y="139.811563" style="stroke: #000000; stroke-width: 0.8"/>
      </g>
     </g>
     <g id="text_1">
      <!-- 0 -->
      <g transform="translate(67.264803 153.650156) scale(0.09 -0.09)">
       <defs>
        <path id="DejaVuSans-30" d="M 2034 4250 
Q 1547 4250 1301 3770 
Q 1056 3291 1056 2328 
Q 1056 1369 1301 889 
Q 1547 409 2034 409 
Q 2525 409 2770 889 
Q 3016 1369 3016 2328 
Q 3016 3291 2770 3770 
Q 2525 4250 2034 4250 
z
M 2034 4750 
Q 2819 4750 3233 4129 
Q 3647 3509 3647 2328 
Q 3647 1150 3233 529 
Q 2819 -91 2034 -91 
Q 1250 -91 836 529 
Q 422 1150 422 2328 
Q 422 3509 836 4129 
Q 1250 4750 2034 4750 
z
" transform="scale(0.015625)"/>
       </defs>
       <use xlink:href="#DejaVuSans-30"/>
      </g>
     </g>
    </g>
    <g id="xtick_2">
     <g id="line2d_2">
      <g>
       <use xlink:href="#mba8541a9f6" x="130.042706" y="139.811563" style="stroke: #000000; stroke-width: 0.8"/>
      </g>
     </g>
     <g id="text_2">
      <!-- 2 -->
      <g transform="translate(127.179581 153.650156) scale(0.09 -0.09)">
       <defs>
        <path id="DejaVuSans-32" d="M 1228 531 
L 3431 531 
L 3431 0 
L 469 0 
L 469 531 
Q 828 903 1448 1529 
Q 2069 2156 2228 2338 
Q 2531 2678 2651 2914 
Q 2772 3150 2772 3378 
Q 2772 3750 2511 3984 
Q 2250 4219 1831 4219 
Q 1534 4219 1204 4116 
Q 875 4013 500 3803 
L 500 4441 
Q 881 4594 1212 4672 
Q 1544 4750 1819 4750 
Q 2544 4750 2975 4387 
Q 3406 4025 3406 3419 
Q 3406 3131 3298 2873 
Q 3191 2616 2906 2266 
Q 2828 2175 2409 1742 
Q 1991 1309 1228 531 
z
" transform="scale(0.015625)"/>
       </defs>
       <use xlink:href="#DejaVuSans-32"/>
      </g>
     </g>
    </g>
    <g id="xtick_3">
     <g id="line2d_3">
      <g>
       <use xlink:href="#mba8541a9f6" x="189.957483" y="139.811563" style="stroke: #000000; stroke-width: 0.8"/>
      </g>
     </g>
     <g id="text_3">
      <!-- 4 -->
      <g transform="translate(187.094358 153.650156) scale(0.09 -0.09)">
       <defs>
        <path id="DejaVuSans-34" d="M 2419 4116 
L 825 1625 
L 2419 1625 
L 2419 4116 
z
M 2253 4666 
L 3047 4666 
L 3047 1625 
L 3713 1625 
L 3713 1100 
L 3047 1100 
L 3047 0 
L 2419 0 
L 2419 1100 
L 313 1100 
L 313 1709 
L 2253 4666 
z
" transform="scale(0.015625)"/>
       </defs>
       <use xlink:href="#DejaVuSans-34"/>
      </g>
     </g>
    </g>
    <g id="xtick_4">
     <g id="line2d_4">
      <g>
       <use xlink:href="#mba8541a9f6" x="249.87226" y="139.811563" style="stroke: #000000; stroke-width: 0.8"/>
      </g>
     </g>
     <g id="text_4">
      <!-- 6 -->
      <g transform="translate(247.009135 153.650156) scale(0.09 -0.09)">
       <defs>
        <path id="DejaVuSans-36" d="M 2113 2584 
Q 1688 2584 1439 2293 
Q 1191 2003 1191 1497 
Q 1191 994 1439 701 
Q 1688 409 2113 409 
Q 2538 409 2786 701 
Q 3034 994 3034 1497 
Q 3034 2003 2786 2293 
Q 2538 2584 2113 2584 
z
M 3366 4563 
L 3366 3988 
Q 3128 4100 2886 4159 
Q 2644 4219 2406 4219 
Q 1781 4219 1451 3797 
Q 1122 3375 1075 2522 
Q 1259 2794 1537 2939 
Q 1816 3084 2150 3084 
Q 2853 3084 3261 2657 
Q 3669 2231 3669 1497 
Q 3669 778 3244 343 
Q 2819 -91 2113 -91 
Q 1303 -91 875 529 
Q 447 1150 447 2328 
Q 447 3434 972 4092 
Q 1497 4750 2381 4750 
Q 2619 4750 2861 4703 
Q 3103 4656 3366 4563 
z
" transform="scale(0.015625)"/>
       </defs>
       <use xlink:href="#DejaVuSans-36"/>
      </g>
     </g>
    </g>
    <g id="xtick_5">
     <g id="line2d_5">
      <g>
       <use xlink:href="#mba8541a9f6" x="309.787037" y="139.811563" style="stroke: #000000; stroke-width: 0.8"/>
      </g>
     </g>
     <g id="text_5">
      <!-- 8 -->
      <g transform="translate(306.923912 153.650156) scale(0.09 -0.09)">
       <defs>
        <path id="DejaVuSans-38" d="M 2034 2216 
Q 1584 2216 1326 1975 
Q 1069 1734 1069 1313 
Q 1069 891 1326 650 
Q 1584 409 2034 409 
Q 2484 409 2743 651 
Q 3003 894 3003 1313 
Q 3003 1734 2745 1975 
Q 2488 2216 2034 2216 
z
M 1403 2484 
Q 997 2584 770 2862 
Q 544 3141 544 3541 
Q 544 4100 942 4425 
Q 1341 4750 2034 4750 
Q 2731 4750 3128 4425 
Q 3525 4100 3525 3541 
Q 3525 3141 3298 2862 
Q 3072 2584 2669 2484 
Q 3125 2378 3379 2068 
Q 3634 1759 3634 1313 
Q 3634 634 3220 271 
Q 2806 -91 2034 -91 
Q 1263 -91 848 271 
Q 434 634 434 1313 
Q 434 1759 690 2068 
Q 947 2378 1403 2484 
z
M 1172 3481 
Q 1172 3119 1398 2916 
Q 1625 2713 2034 2713 
Q 2441 2713 2670 2916 
Q 2900 3119 2900 3481 
Q 2900 3844 2670 4047 
Q 2441 4250 2034 4250 
Q 1625 4250 1398 4047 
Q 1172 3844 1172 3481 
z
" transform="scale(0.015625)"/>
       </defs>
       <use xlink:href="#DejaVuSans-38"/>
      </g>
     </g>
    </g>
    <g id="xtick_6">
     <g id="line2d_6">
      <g>
       <use xlink:href="#mba8541a9f6" x="369.701814" y="139.811563" style="stroke: #000000; stroke-width: 0.8"/>
      </g>
     </g>
     <g id="text_6">
      <!-- 10 -->
      <g transform="translate(363.975564 153.650156) scale(0.09 -0.09)">
       <defs>
        <path id="DejaVuSans-31" d="M 794 531 
L 1825 531 
L 1825 4091 
L 703 3866 
L 703 4441 
L 1819 4666 
L 2450 4666 
L 2450 531 
L 3481 531 
L 3481 0 
L 794 0 
L 794 531 
z
" transform="scale(0.015625)"/>
       </defs>
       <use xlink:href="#DejaVuSans-31"/>
       <use xlink:href="#DejaVuSans-30" transform="translate(63.623047 0)"/>
      </g>
     </g>
    </g>
    <g id="text_7">
     <!-- Time [hr] -->
     <g transform="translate(205.828828 167.120313) scale(0.1 -0.1)">
      <defs>
       <path id="DejaVuSans-54" d="M -19 4666 
L 3928 4666 
L 3928 4134 
L 2272 4134 
L 2272 0 
L 1638 0 
L 1638 4134 
L -19 4134 
L -19 4666 
z
" transform="scale(0.015625)"/>
       <path id="DejaVuSans-69" d="M 603 3500 
L 1178 3500 
L 1178 0 
L 603 0 
L 603 3500 
z
M 603 4863 
L 1178 4863 
L 1178 4134 
L 603 4134 
L 603 4863 
z
" transform="scale(0.015625)"/>
       <path id="DejaVuSans-6d" d="M 3328 2828 
Q 3544 3216 3844 3400 
Q 4144 3584 4550 3584 
Q 5097 3584 5394 3201 
Q 5691 2819 5691 2113 
L 5691 0 
L 5113 0 
L 5113 2094 
Q 5113 2597 4934 2840 
Q 4756 3084 4391 3084 
Q 3944 3084 3684 2787 
Q 3425 2491 3425 1978 
L 3425 0 
L 2847 0 
L 2847 2094 
Q 2847 2600 2669 2842 
Q 2491 3084 2119 3084 
Q 1678 3084 1418 2786 
Q 1159 2488 1159 1978 
L 1159 0 
L 581 0 
L 581 3500 
L 1159 3500 
L 1159 2956 
Q 1356 3278 1631 3431 
Q 1906 3584 2284 3584 
Q 2666 3584 2933 3390 
Q 3200 3197 3328 2828 
z
" transform="scale(0.015625)"/>
       <path id="DejaVuSans-65" d="M 3597 1894 
L 3597 1613 
L 953 1613 
Q 991 1019 1311 708 
Q 1631 397 2203 397 
Q 2534 397 2845 478 
Q 3156 559 3463 722 
L 3463 178 
Q 3153 47 2828 -22 
Q 2503 -91 2169 -91 
Q 1331 -91 842 396 
Q 353 884 353 1716 
Q 353 2575 817 3079 
Q 1281 3584 2069 3584 
Q 2775 3584 3186 3129 
Q 3597 2675 3597 1894 
z
M 3022 2063 
Q 3016 2534 2758 2815 
Q 2500 3097 2075 3097 
Q 1594 3097 1305 2825 
Q 1016 2553 972 2059 
L 3022 2063 
z
" transform="scale(0.015625)"/>
       <path id="DejaVuSans-20" transform="scale(0.015625)"/>
       <path id="DejaVuSans-5b" d="M 550 4863 
L 1875 4863 
L 1875 4416 
L 1125 4416 
L 1125 -397 
L 1875 -397 
L 1875 -844 
L 550 -844 
L 550 4863 
z
" transform="scale(0.015625)"/>
       <path id="DejaVuSans-68" d="M 3513 2113 
L 3513 0 
L 2938 0 
L 2938 2094 
Q 2938 2591 2744 2837 
Q 2550 3084 2163 3084 
Q 1697 3084 1428 2787 
Q 1159 2491 1159 1978 
L 1159 0 
L 581 0 
L 581 4863 
L 1159 4863 
L 1159 2956 
Q 1366 3272 1645 3428 
Q 1925 3584 2291 3584 
Q 2894 3584 3203 3211 
Q 3513 2838 3513 2113 
z
" transform="scale(0.015625)"/>
       <path id="DejaVuSans-72" d="M 2631 2963 
Q 2534 3019 2420 3045 
Q 2306 3072 2169 3072 
Q 1681 3072 1420 2755 
Q 1159 2438 1159 1844 
L 1159 0 
L 581 0 
L 581 3500 
L 1159 3500 
L 1159 2956 
Q 1341 3275 1631 3429 
Q 1922 3584 2338 3584 
Q 2397 3584 2469 3576 
Q 2541 3569 2628 3553 
L 2631 2963 
z
" transform="scale(0.015625)"/>
       <path id="DejaVuSans-5d" d="M 1947 4863 
L 1947 -844 
L 622 -844 
L 622 -397 
L 1369 -397 
L 1369 4416 
L 622 4416 
L 622 4863 
L 1947 4863 
z
" transform="scale(0.015625)"/>
      </defs>
      <use xlink:href="#DejaVuSans-54"/>
      <use xlink:href="#DejaVuSans-69" transform="translate(57.958984 0)"/>
      <use xlink:href="#DejaVuSans-6d" transform="translate(85.742188 0)"/>
      <use xlink:href="#DejaVuSans-65" transform="translate(183.154297 0)"/>
      <use xlink:href="#DejaVuSans-20" transform="translate(244.677734 0)"/>
      <use xlink:href="#DejaVuSans-5b" transform="translate(276.464844 0)"/>
      <use xlink:href="#DejaVuSans-68" transform="translate(315.478516 0)"/>
      <use xlink:href="#DejaVuSans-72" transform="translate(378.857422 0)"/>
      <use xlink:href="#DejaVuSans-5d" transform="translate(419.970703 0)"/>
     </g>
    </g>
   </g>
   <g id="matplotlib.axis_2">
    <g id="ytick_1">
     <g id="line2d_7">
      <defs>
       <path id="me6c4e7704b" d="M 0 0 
L -3.5 0 
" style="stroke: #000000; stroke-width: 0.8"/>
      </defs>
      <g>
       <use xlink:href="#me6c4e7704b" x="54.354531" y="123.439866" style="stroke: #000000; stroke-width: 0.8"/>
      </g>
     </g>
     <g id="text_8">
      <!-- −0.4 -->
      <g transform="translate(25.5 126.859163) scale(0.09 -0.09)">
       <defs>
        <path id="DejaVuSans-2212" d="M 678 2272 
L 4684 2272 
L 4684 1741 
L 678 1741 
L 678 2272 
z
" transform="scale(0.015625)"/>
        <path id="DejaVuSans-2e" d="M 684 794 
L 1344 794 
L 1344 0 
L 684 0 
L 684 794 
z
" transform="scale(0.015625)"/>
       </defs>
       <use xlink:href="#DejaVuSans-2212"/>
       <use xlink:href="#DejaVuSans-30" transform="translate(83.789062 0)"/>
       <use xlink:href="#DejaVuSans-2e" transform="translate(147.412109 0)"/>
       <use xlink:href="#DejaVuSans-34" transform="translate(179.199219 0)"/>
      </g>
     </g>
    </g>
    <g id="ytick_2">
     <g id="line2d_8">
      <g>
       <use xlink:href="#me6c4e7704b" x="54.354531" y="100.319937" style="stroke: #000000; stroke-width: 0.8"/>
      </g>
     </g>
     <g id="text_9">
      <!-- −0.2 -->
      <g transform="translate(25.5 103.739234) scale(0.09 -0.09)">
       <use xlink:href="#DejaVuSans-2212"/>
       <use xlink:href="#DejaVuSans-30" transform="translate(83.789062 0)"/>
       <use xlink:href="#DejaVuSans-2e" transform="translate(147.412109 0)"/>
       <use xlink:href="#DejaVuSans-32" transform="translate(179.199219 0)"/>
      </g>
     </g>
    </g>
    <g id="ytick_3">
     <g id="line2d_9">
      <g>
       <use xlink:href="#me6c4e7704b" x="54.354531" y="77.200008" style="stroke: #000000; stroke-width: 0.8"/>
      </g>
     </g>
     <g id="text_10">
      <!-- 0.0 -->
      <g transform="translate(33.041719 80.619305) scale(0.09 -0.09)">
       <use xlink:href="#DejaVuSans-30"/>
       <use xlink:href="#DejaVuSans-2e" transform="translate(63.623047 0)"/>
       <use xlink:href="#DejaVuSans-30" transform="translate(95.410156 0)"/>
      </g>
     </g>
    </g>
    <g id="ytick_4">
     <g id="line2d_10">
      <g>
       <use xlink:href="#me6c4e7704b" x="54.354531" y="54.080079" style="stroke: #000000; stroke-width: 0.8"/>
      </g>
     </g>
     <g id="text_11">
      <!-- 0.2 -->
      <g transform="translate(33.041719 57.499376) scale(0.09 -0.09)">
       <use xlink:href="#DejaVuSans-30"/>
       <use xlink:href="#DejaVuSans-2e" transform="translate(63.623047 0)"/>
       <use xlink:href="#DejaVuSans-32" transform="translate(95.410156 0)"/>
      </g>
     </g>
    </g>
    <g id="ytick_5">
     <g id="line2d_11">
      <g>
       <use xlink:href="#me6c4e7704b" x="54.354531" y="30.96015" style="stroke: #000000; stroke-width: 0.8"/>
      </g>
     </g>
     <g id="text_12">
      <!-- 0.4 -->
      <g transform="translate(33.041719 34.379447) scale(0.09 -0.09)">
       <use xlink:href="#DejaVuSans-30"/>
       <use xlink:href="#DejaVuSans-2e" transform="translate(63.623047 0)"/>
       <use xlink:href="#DejaVuSans-34" transform="translate(95.410156 0)"/>
      </g>
     </g>
    </g>
    <g id="text_13">
     <!-- $(\rho_{stoch} / \rho_{exp}) - 1$ [-] -->
     <g transform="translate(18.4 120.055781) rotate(-90) scale(0.1 -0.1)">
      <defs>
       <path id="DejaVuSans-28" d="M 1984 4856 
Q 1566 4138 1362 3434 
Q 1159 2731 1159 2009 
Q 1159 1288 1364 580 
Q 1569 -128 1984 -844 
L 1484 -844 
Q 1016 -109 783 600 
Q 550 1309 550 2009 
Q 550 2706 781 3412 
Q 1013 4119 1484 4856 
L 1984 4856 
z
" transform="scale(0.015625)"/>
       <path id="DejaVuSans-Oblique-3c1" d="M 1203 2875 
Q 1453 3194 1981 3475 
Q 2188 3584 2756 3584 
Q 3394 3584 3694 3078 
Q 3994 2572 3834 1747 
Q 3672 922 3175 415 
Q 2678 -91 2041 -91 
Q 1656 -91 1409 63 
Q 1163 213 1044 525 
L 681 -1331 
L 103 -1331 
L 697 1716 
Q 838 2438 1203 2875 
z
M 3238 1747 
Q 3359 2381 3169 2744 
Q 2978 3103 2522 3103 
Q 2066 3103 1734 2744 
Q 1403 2381 1281 1747 
Q 1156 1113 1347 750 
Q 1538 391 1994 391 
Q 2450 391 2781 750 
Q 3113 1113 3238 1747 
z
" transform="scale(0.015625)"/>
       <path id="DejaVuSans-Oblique-73" d="M 3200 3397 
L 3091 2853 
Q 2863 2978 2609 3040 
Q 2356 3103 2088 3103 
Q 1634 3103 1373 2948 
Q 1113 2794 1113 2528 
Q 1113 2219 1719 2053 
Q 1766 2041 1788 2034 
L 1972 1978 
Q 2547 1819 2739 1644 
Q 2931 1469 2931 1166 
Q 2931 609 2489 259 
Q 2047 -91 1331 -91 
Q 1053 -91 747 -37 
Q 441 16 72 128 
L 184 722 
Q 500 559 806 475 
Q 1113 391 1394 391 
Q 1816 391 2080 572 
Q 2344 753 2344 1031 
Q 2344 1331 1650 1516 
L 1591 1531 
L 1394 1581 
Q 956 1697 753 1886 
Q 550 2075 550 2369 
Q 550 2928 970 3256 
Q 1391 3584 2113 3584 
Q 2397 3584 2667 3537 
Q 2938 3491 3200 3397 
z
" transform="scale(0.015625)"/>
       <path id="DejaVuSans-Oblique-74" d="M 2706 3500 
L 2619 3053 
L 1472 3053 
L 1100 1153 
Q 1081 1047 1072 975 
Q 1063 903 1063 863 
Q 1063 663 1183 572 
Q 1303 481 1569 481 
L 2150 481 
L 2053 0 
L 1503 0 
Q 991 0 739 200 
Q 488 400 488 806 
Q 488 878 497 964 
Q 506 1050 525 1153 
L 897 3053 
L 409 3053 
L 500 3500 
L 978 3500 
L 1172 4494 
L 1747 4494 
L 1556 3500 
L 2706 3500 
z
" transform="scale(0.015625)"/>
       <path id="DejaVuSans-Oblique-6f" d="M 1625 -91 
Q 1009 -91 651 289 
Q 294 669 294 1325 
Q 294 1706 417 2101 
Q 541 2497 738 2766 
Q 1047 3184 1428 3384 
Q 1809 3584 2291 3584 
Q 2888 3584 3255 3212 
Q 3622 2841 3622 2241 
Q 3622 1825 3500 1412 
Q 3378 1000 3181 728 
Q 2875 309 2494 109 
Q 2113 -91 1625 -91 
z
M 891 1344 
Q 891 869 1089 633 
Q 1288 397 1691 397 
Q 2269 397 2648 901 
Q 3028 1406 3028 2181 
Q 3028 2634 2825 2865 
Q 2622 3097 2228 3097 
Q 1903 3097 1650 2945 
Q 1397 2794 1197 2484 
Q 1050 2253 970 1956 
Q 891 1659 891 1344 
z
" transform="scale(0.015625)"/>
       <path id="DejaVuSans-Oblique-63" d="M 3431 3366 
L 3316 2797 
Q 3109 2947 2876 3022 
Q 2644 3097 2394 3097 
Q 2119 3097 1870 3000 
Q 1622 2903 1453 2725 
Q 1184 2453 1037 2087 
Q 891 1722 891 1331 
Q 891 859 1127 628 
Q 1363 397 1844 397 
Q 2081 397 2348 469 
Q 2616 541 2906 684 
L 2797 116 
Q 2547 13 2283 -39 
Q 2019 -91 1741 -91 
Q 1044 -91 669 257 
Q 294 606 294 1253 
Q 294 1797 489 2255 
Q 684 2713 1069 3078 
Q 1331 3328 1684 3456 
Q 2038 3584 2456 3584 
Q 2700 3584 2940 3529 
Q 3181 3475 3431 3366 
z
" transform="scale(0.015625)"/>
       <path id="DejaVuSans-Oblique-68" d="M 3566 2113 
L 3156 0 
L 2578 0 
L 2988 2091 
Q 3016 2238 3031 2350 
Q 3047 2463 3047 2528 
Q 3047 2791 2881 2937 
Q 2716 3084 2419 3084 
Q 1956 3084 1617 2771 
Q 1278 2459 1178 1941 
L 800 0 
L 225 0 
L 1172 4863 
L 1747 4863 
L 1375 2950 
Q 1594 3244 1934 3414 
Q 2275 3584 2650 3584 
Q 3113 3584 3367 3334 
Q 3622 3084 3622 2631 
Q 3622 2519 3608 2391 
Q 3594 2263 3566 2113 
z
" transform="scale(0.015625)"/>
       <path id="DejaVuSans-2f" d="M 1625 4666 
L 2156 4666 
L 531 -594 
L 0 -594 
L 1625 4666 
z
" transform="scale(0.015625)"/>
       <path id="DejaVuSans-Oblique-65" d="M 3078 2063 
Q 3088 2113 3092 2166 
Q 3097 2219 3097 2272 
Q 3097 2653 2873 2875 
Q 2650 3097 2266 3097 
Q 1838 3097 1509 2826 
Q 1181 2556 1013 2059 
L 3078 2063 
z
M 3578 1613 
L 903 1613 
Q 884 1494 878 1425 
Q 872 1356 872 1306 
Q 872 872 1139 634 
Q 1406 397 1894 397 
Q 2269 397 2603 481 
Q 2938 566 3225 728 
L 3116 159 
Q 2806 34 2476 -28 
Q 2147 -91 1806 -91 
Q 1078 -91 686 257 
Q 294 606 294 1247 
Q 294 1794 489 2264 
Q 684 2734 1063 3103 
Q 1306 3334 1642 3459 
Q 1978 3584 2356 3584 
Q 2950 3584 3301 3228 
Q 3653 2872 3653 2272 
Q 3653 2128 3634 1964 
Q 3616 1800 3578 1613 
z
" transform="scale(0.015625)"/>
       <path id="DejaVuSans-Oblique-78" d="M 3841 3500 
L 2234 1784 
L 3219 0 
L 2559 0 
L 1819 1388 
L 531 0 
L -166 0 
L 1556 1844 
L 641 3500 
L 1300 3500 
L 1972 2234 
L 3144 3500 
L 3841 3500 
z
" transform="scale(0.015625)"/>
       <path id="DejaVuSans-Oblique-70" d="M 3175 2156 
Q 3175 2616 2975 2859 
Q 2775 3103 2400 3103 
Q 2144 3103 1911 2972 
Q 1678 2841 1497 2591 
Q 1319 2344 1212 1994 
Q 1106 1644 1106 1300 
Q 1106 863 1306 627 
Q 1506 391 1875 391 
Q 2147 391 2380 519 
Q 2613 647 2778 891 
Q 2956 1147 3065 1494 
Q 3175 1841 3175 2156 
z
M 1394 2969 
Q 1625 3272 1939 3428 
Q 2253 3584 2638 3584 
Q 3175 3584 3472 3232 
Q 3769 2881 3769 2247 
Q 3769 1728 3584 1258 
Q 3400 788 3053 416 
Q 2822 169 2531 39 
Q 2241 -91 1919 -91 
Q 1547 -91 1294 64 
Q 1041 219 916 525 
L 556 -1331 
L -19 -1331 
L 922 3500 
L 1497 3500 
L 1394 2969 
z
" transform="scale(0.015625)"/>
       <path id="DejaVuSans-29" d="M 513 4856 
L 1013 4856 
Q 1481 4119 1714 3412 
Q 1947 2706 1947 2009 
Q 1947 1309 1714 600 
Q 1481 -109 1013 -844 
L 513 -844 
Q 928 -128 1133 580 
Q 1338 1288 1338 2009 
Q 1338 2731 1133 3434 
Q 928 4138 513 4856 
z
" transform="scale(0.015625)"/>
       <path id="DejaVuSans-2d" d="M 313 2009 
L 1997 2009 
L 1997 1497 
L 313 1497 
L 313 2009 
z
" transform="scale(0.015625)"/>
      </defs>
      <use xlink:href="#DejaVuSans-28" transform="translate(0 0.015625)"/>
      <use xlink:href="#DejaVuSans-Oblique-3c1" transform="translate(39.013672 0.015625)"/>
      <use xlink:href="#DejaVuSans-Oblique-73" transform="translate(102.490234 -16.390625) scale(0.7)"/>
      <use xlink:href="#DejaVuSans-Oblique-74" transform="translate(138.959961 -16.390625) scale(0.7)"/>
      <use xlink:href="#DejaVuSans-Oblique-6f" transform="translate(166.40625 -16.390625) scale(0.7)"/>
      <use xlink:href="#DejaVuSans-Oblique-63" transform="translate(209.233398 -16.390625) scale(0.7)"/>
      <use xlink:href="#DejaVuSans-Oblique-68" transform="translate(247.719727 -16.390625) scale(0.7)"/>
      <use xlink:href="#DejaVuSans-2f" transform="translate(294.819336 0.015625)"/>
      <use xlink:href="#DejaVuSans-Oblique-3c1" transform="translate(328.510742 0.015625)"/>
      <use xlink:href="#DejaVuSans-Oblique-65" transform="translate(391.987305 -16.390625) scale(0.7)"/>
      <use xlink:href="#DejaVuSans-Oblique-78" transform="translate(435.053711 -16.390625) scale(0.7)"/>
      <use xlink:href="#DejaVuSans-Oblique-70" transform="translate(476.479492 -16.390625) scale(0.7)"/>
      <use xlink:href="#DejaVuSans-29" transform="translate(523.647461 0.015625)"/>
      <use xlink:href="#DejaVuSans-2212" transform="translate(582.143555 0.015625)"/>
      <use xlink:href="#DejaVuSans-31" transform="translate(685.415039 0.015625)"/>
      <use xlink:href="#DejaVuSans-20" transform="translate(749.038086 0.015625)"/>
      <use xlink:href="#DejaVuSans-5b" transform="translate(780.825195 0.015625)"/>
      <use xlink:href="#DejaVuSans-2d" transform="translate(819.838867 0.015625)"/>
      <use xlink:href="#DejaVuSans-5d" transform="translate(855.922852 0.015625)"/>
     </g>
    </g>
   </g>
   <g id="line2d_12">
    <path d="M 70.211143 73.464942 
L 70.294358 73.464946 
L 70.460788 92.700593 
L 70.544003 91.659421 
L 71.043293 87.085003 
L 71.542583 37.445684 
L 71.625798 40.631202 
L 71.709013 50.997156 
L 71.792228 46.182052 
L 71.875443 56.057129 
L 71.958658 50.794581 
L 72.041873 60.261759 
L 72.125088 42.854088 
L 72.208303 53.023512 
L 72.374733 38.505725 
L 72.457948 41.597659 
L 72.624378 76.952825 
L 72.707593 69.842553 
L 72.957237 70.722101 
L 73.040452 66.653902 
L 73.373312 90.722946 
L 73.456527 89.857097 
L 73.706172 87.692599 
L 73.789387 67.859903 
L 73.872602 68.356187 
L 74.039032 88.455845 
L 74.205462 64.679621 
L 74.288677 58.655334 
L 74.371892 59.965778 
L 74.455107 61.160357 
L 74.621537 81.435423 
L 74.787967 81.350997 
L 74.871182 73.852612 
L 75.037612 103.754737 
L 75.120827 101.736821 
L 75.204042 92.43573 
L 75.287257 109.993244 
L 75.370472 107.423683 
L 75.453686 116.85393 
L 75.620116 103.320766 
L 75.703331 100.681526 
L 75.952976 72.529015 
L 76.036191 91.846863 
L 76.202621 70.769381 
L 76.285836 78.470522 
L 76.369051 66.916802 
L 76.452266 68.15713 
L 76.535481 69.287797 
L 76.868341 86.123052 
L 77.034771 83.98615 
L 77.117986 90.518538 
L 77.201201 89.671838 
L 77.284416 81.438842 
L 77.367631 88.196535 
L 77.450846 68.322269 
L 77.534061 68.778841 
L 77.617276 69.195066 
L 77.866921 100.19918 
L 77.950136 91.035566 
L 78.282995 85.603962 
L 78.36621 103.764898 
L 78.615855 76.678504 
L 78.69907 77.056313 
L 78.948715 87.782302 
L 79.03193 79.717476 
L 79.115145 86.627619 
L 79.19836 86.12573 
L 79.36479 85.251272 
L 79.53122 77.064141 
L 79.69765 98.961483 
L 79.780865 84.938369 
L 80.03051 112.124064 
L 80.113725 101.907192 
L 80.19694 118.625752 
L 80.280155 115.294407 
L 80.36337 104.79731 
L 80.5298 111.276532 
L 80.696229 104.889969 
L 80.862659 111.353623 
L 80.945874 108.005895 
L 81.112304 132.132461 
L 81.278734 105.292156 
L 81.445164 129.87737 
L 81.611594 110.878787 
L 81.778024 105.821323 
L 81.861239 107.932916 
L 81.944454 104.888062 
L 82.027669 121.342424 
L 82.110884 117.771439 
L 82.194099 95.286487 
L 82.277314 100.820065 
L 82.443744 79.274691 
L 82.526959 78.764499 
L 82.610174 85.759275 
L 82.776604 77.489196 
L 82.943034 106.774097 
L 83.109464 94.951651 
L 83.192679 93.055247 
L 83.359108 119.708502 
L 83.525538 105.699778 
L 83.608753 102.852961 
L 83.775183 94.623515 
L 83.858398 97.725748 
L 84.024828 111.820015 
L 84.191258 106.604827 
L 84.274473 96.878411 
L 84.524118 119.178297 
L 84.607333 108.34007 
L 84.690548 112.719413 
L 84.773763 109.911799 
L 84.856978 99.893187 
L 84.940193 105.019564 
L 85.023408 95.433681 
L 85.106623 112.7233 
L 85.189838 102.45619 
L 85.356268 116.79155 
L 85.439483 125.392711 
L 85.605913 110.424496 
L 85.689128 114.619553 
L 85.772343 111.644121 
L 85.938772 99.000332 
L 86.021987 108.515206 
L 86.105202 105.420043 
L 86.188417 110.057699 
L 86.271632 107.485801 
L 86.438062 118.041467 
L 86.604492 110.514597 
L 86.770922 116.028628 
L 86.937352 108.84214 
L 87.103782 92.142989 
L 87.186997 97.95485 
L 87.270212 88.994515 
L 87.353427 95.084819 
L 87.436642 86.378341 
L 87.519857 92.700014 
L 87.603072 91.663365 
L 87.686287 83.25953 
L 87.769502 94.166369 
L 87.935932 68.180357 
L 88.102362 88.310003 
L 88.268792 75.302521 
L 88.352007 75.804523 
L 88.435222 68.80334 
L 88.518436 76.679292 
L 88.601651 69.600781 
L 88.684866 89.174284 
L 88.768081 88.449561 
L 88.851296 80.330174 
L 88.934511 87.18674 
L 89.017726 86.637805 
L 89.100941 74.369407 
L 89.184156 86.722007 
L 89.267371 78.755461 
L 89.350586 85.751288 
L 89.433801 85.329328 
L 89.517016 77.485977 
L 89.766661 99.019629 
L 89.849876 115.991315 
L 89.933091 93.668457 
L 90.016306 99.345436 
L 90.099521 97.721293 
L 90.182736 77.014193 
L 90.265951 84.163996 
L 90.349166 72.114535 
L 90.432381 72.898585 
L 90.515596 85.381192 
L 90.598811 77.533339 
L 90.931671 115.159117 
L 91.014886 92.909974 
L 91.098101 98.65401 
L 91.181315 97.091026 
L 91.26453 88.207615 
L 91.347745 94.367497 
L 91.43096 85.724939 
L 91.514175 92.104372 
L 91.59739 91.120596 
L 91.76382 89.406342 
L 91.847035 81.202508 
L 91.93025 87.981868 
L 92.013465 87.362648 
L 92.179895 78.824983 
L 92.26311 97.582467 
L 92.42954 87.317114 
L 92.59597 96.752759 
L 92.679185 94.698235 
L 92.7624 100.284065 
L 92.845615 98.576844 
L 93.012045 88.143283 
L 93.09526 94.308781 
L 93.178475 93.129952 
L 93.26169 92.055364 
L 93.42812 82.724148 
L 93.511335 81.910152 
L 93.59455 76.858874 
L 93.677765 77.223166 
L 93.76098 77.555234 
L 94.010624 110.659307 
L 94.093839 108.034425 
L 94.343484 90.744846 
L 94.509914 99.820981 
L 94.759559 77.064397 
L 94.842774 84.209539 
L 94.925989 76.464777 
L 95.009204 95.431094 
L 95.092419 86.69392 
L 95.175634 97.296795 
L 95.342064 78.239947 
L 95.508494 78.702318 
L 95.591709 71.44439 
L 95.674924 79.086469 
L 95.924569 61.357802 
L 96.174214 64.306244 
L 96.340644 85.09024 
L 96.507073 76.935221 
L 96.590288 84.091657 
L 96.756718 76.105315 
L 96.839933 83.335122 
L 96.923148 83.126138 
L 97.006363 75.476538 
L 97.089578 94.530504 
L 97.172793 93.331416 
L 97.256008 73.01062 
L 97.422438 80.554446 
L 97.505653 73.132085 
L 97.672083 92.424019 
L 97.838513 83.02851 
L 98.171373 80.082286 
L 98.254588 75.191413 
L 98.337803 56.474116 
L 98.421018 65.439847 
L 98.587448 48.836513 
L 98.670663 58.477644 
L 98.753878 53.007122 
L 98.837093 54.820046 
L 99.003523 65.438446 
L 99.086737 59.352225 
L 99.253167 73.514085 
L 99.336382 73.513386 
L 99.419597 80.972196 
L 99.669242 51.962069 
L 100.002102 87.638468 
L 100.085317 87.048202 
L 100.168532 67.281143 
L 100.251747 75.29103 
L 100.334962 68.333003 
L 100.418177 76.249854 
L 100.501392 64.89716 
L 100.584607 66.317869 
L 100.751037 68.793427 
L 100.834252 62.409801 
L 101.000682 71.744573 
L 101.083897 72.559624 
L 101.167112 54.073155 
L 101.250327 55.791204 
L 101.333542 45.58761 
L 101.416757 67.285562 
L 101.499972 49.265276 
L 101.583187 63.178187 
L 101.666401 59.781027 
L 101.749616 61.65391 
L 101.832831 55.901261 
L 101.916046 76.687246 
L 101.999261 57.835204 
L 102.082476 59.22037 
L 102.248906 80.863898 
L 102.332121 73.412248 
L 102.498551 80.886676 
L 102.581766 80.892929 
L 102.664981 69.128563 
L 102.748196 74.48462 
L 102.831411 62.627149 
L 102.914626 63.588353 
L 103.164271 85.221548 
L 103.247486 84.844313 
L 103.413916 76.726771 
L 103.497131 95.6714 
L 103.580346 75.139504 
L 103.663561 82.454221 
L 103.746776 70.551274 
L 103.829991 83.241615 
L 103.913206 75.579096 
L 103.996421 82.854921 
L 104.079636 82.686804 
L 104.162851 86.843697 
L 104.246066 85.663049 
L 104.32928 84.58679 
L 104.412495 71.835193 
L 104.578925 94.615478 
L 104.745355 91.044608 
L 104.82857 101.262935 
L 104.911785 98.806996 
L 104.995 96.568226 
L 105.16143 111.898194 
L 105.49429 70.037942 
L 105.577505 71.00297 
L 105.66072 76.192937 
L 105.743935 75.953853 
L 105.910365 98.03797 
L 106.076795 83.158046 
L 106.32644 80.812809 
L 106.409655 68.39405 
L 106.49287 76.305135 
L 106.576085 69.255099 
L 106.6593 69.629372 
L 106.82573 77.742191 
L 107.325019 42.219845 
L 107.491449 77.467504 
L 107.574664 70.314394 
L 107.741094 70.850459 
L 107.824309 59.31219 
L 107.907524 68.02638 
L 107.990739 57.397604 
L 108.073954 59.480073 
L 108.157169 53.917527 
L 108.323599 64.68617 
L 108.406814 58.66318 
L 108.490029 79.206151 
L 108.573244 67.588547 
L 108.656459 68.769732 
L 108.739674 62.385549 
L 108.822889 63.367033 
L 108.906104 59.951179 
L 108.989319 42.575354 
L 109.072534 45.308721 
L 109.322179 82.105016 
L 109.488609 81.908834 
L 109.655038 74.284821 
L 109.821468 74.149312 
L 109.904683 81.551389 
L 109.987898 81.497686 
L 110.071113 73.98773 
L 110.154328 93.175686 
L 110.237543 84.632971 
L 110.487188 100.120303 
L 110.736833 77.277702 
L 110.820048 96.174763 
L 110.903263 87.366762 
L 110.986478 93.599959 
L 111.069693 92.480695 
L 111.319338 71.490838 
L 111.568983 71.97386 
L 111.735413 90.420603 
L 111.818628 82.121419 
L 111.901843 88.818498 
L 111.985058 80.660992 
L 112.068273 87.487226 
L 112.234702 74.609297 
L 112.484347 85.927263 
L 112.567562 85.486523 
L 112.733992 77.257449 
L 112.983637 76.341894 
L 113.066852 83.550113 
L 113.233282 75.648417 
L 113.316497 75.45689 
L 113.399712 82.743385 
L 113.482927 75.123163 
L 113.732572 93.958109 
L 113.815787 73.574436 
L 113.899002 81.027425 
L 113.982217 81.02006 
L 114.398292 49.57307 
L 114.481507 52.347429 
L 114.980796 16.664162 
L 115.147226 37.000259 
L 115.230441 28.455199 
L 115.646516 83.073329 
L 115.812946 75.252832 
L 115.896161 82.557517 
L 115.979376 63.182641 
L 116.062591 71.554781 
L 116.145806 64.924479 
L 116.229021 65.68167 
L 116.395451 67.001125 
L 116.645096 47.021405 
L 116.728311 45.051468 
L 116.811526 48.226068 
L 116.894741 43.659092 
L 116.977956 65.529221 
L 117.061171 47.660761 
L 117.144386 49.944876 
L 117.227601 59.487813 
L 117.310816 42.153772 
L 117.394031 64.156985 
L 117.477245 58.181331 
L 117.56046 59.535137 
L 117.643675 56.458803 
L 117.72689 58.624776 
L 117.89332 50.627936 
L 117.976535 53.309628 
L 118.142965 39.79181 
L 118.309395 63.679532 
L 118.39261 45.975455 
L 118.475825 67.640547 
L 118.55904 61.35724 
L 118.642255 62.430461 
L 118.808685 94.262007 
L 118.975115 73.821809 
L 119.05833 73.792807 
L 119.141545 81.226896 
L 119.22476 61.971553 
L 119.307975 62.990619 
L 119.39119 63.919584 
L 119.640835 84.43224 
L 119.72405 72.354191 
L 119.807265 84.885559 
L 119.89048 84.538098 
L 119.973695 84.221389 
L 120.056909 95.703245 
L 120.223339 82.48087 
L 120.389769 92.952941 
L 120.556199 72.73552 
L 120.639414 72.80302 
L 120.722629 80.324788 
L 120.805844 72.920711 
L 120.972274 95.518219 
L 121.055489 93.570999 
L 121.138704 99.256142 
L 121.305134 88.703138 
L 121.388349 99.128852 
L 121.471564 96.862431 
L 121.637994 92.913233 
L 121.887639 67.695952 
L 121.970854 68.209502 
L 122.137284 76.564375 
L 122.220499 57.72361 
L 122.386929 90.350045 
L 122.470144 70.290307 
L 122.553359 89.804225 
L 122.636574 89.02248 
L 122.719788 76.540165 
L 122.803003 81.241392 
L 122.886218 76.247393 
L 122.969433 76.664666 
L 123.052648 88.814684 
L 123.135863 80.660836 
L 123.219078 87.487886 
L 123.385508 78.925771 
L 123.551938 78.009833 
L 123.718368 96.477882 
L 123.801583 95.106237 
L 123.884798 93.855917 
L 124.051228 84.217711 
L 124.217658 82.407489 
L 124.300873 89.080145 
L 124.384088 69.134144 
L 124.467303 76.98067 
L 124.550518 69.874008 
L 124.800163 88.943919 
L 124.966593 65.098782 
L 125.049808 78.271543 
L 125.133023 71.050969 
L 125.216238 90.497008 
L 125.299453 70.426359 
L 125.382667 78.158669 
L 125.465882 70.948212 
L 125.549097 71.175089 
L 125.632312 78.841199 
L 125.715527 71.570483 
L 125.798742 71.742392 
L 125.965172 90.229211 
L 126.048387 89.41071 
L 126.214817 80.525341 
L 126.298032 87.364582 
L 126.381247 86.799488 
L 126.464462 67.056623 
L 126.547677 75.087009 
L 126.630892 68.148659 
L 126.714107 87.851047 
L 126.797322 79.783947 
L 126.880537 90.998248 
L 126.963752 89.452283 
L 127.213397 64.04008 
L 127.379827 73.101351 
L 127.463042 73.797873 
L 127.546257 86.20117 
L 127.629472 78.28027 
L 127.712687 85.318129 
L 127.795902 84.934298 
L 127.962331 76.806614 
L 128.045546 83.974813 
L 128.211976 76.00945 
L 128.295191 83.248157 
L 128.461621 71.096425 
L 128.544836 71.970439 
L 128.628051 65.30837 
L 128.877696 85.486411 
L 128.960911 77.629133 
L 129.044126 84.724626 
L 129.127341 84.3935 
L 129.210556 76.632945 
L 129.293771 88.125803 
L 129.376986 75.06635 
L 129.460201 82.388497 
L 129.543416 82.264026 
L 129.793061 62.726366 
L 129.876276 63.68118 
L 130.042706 95.298608 
L 130.125921 86.573866 
L 130.209136 85.419737 
L 130.292351 103.594088 
L 130.375566 101.594371 
L 130.541996 79.924208 
L 130.62521 79.358187 
L 130.708425 67.074497 
L 130.79164 86.871161 
L 130.874855 78.891856 
L 130.95807 97.643418 
L 131.1245 87.368401 
L 131.29093 103.213587 
L 131.540575 79.636413 
L 131.707005 90.370863 
L 131.79022 88.881076 
L 131.873435 106.749129 
L 131.95665 104.470515 
L 132.039865 94.934943 
L 132.12308 100.500005 
L 132.206295 79.548002 
L 132.372725 96.71518 
L 132.705585 91.845873 
L 132.7888 79.117708 
L 132.872015 79.282716 
L 132.95523 83.742233 
L 133.12166 100.200335 
L 133.288089 86.224865 
L 133.371304 85.761342 
L 133.537734 77.495212 
L 133.787379 76.532296 
L 133.870594 95.492295 
L 133.953809 94.209193 
L 134.037024 93.039558 
L 134.120239 84.514926 
L 134.203454 91.001442 
L 134.286669 82.657041 
L 134.369884 89.307853 
L 134.453099 88.57165 
L 134.536314 80.44211 
L 134.785959 97.990328 
L 134.869174 96.486268 
L 134.952389 99.424318 
L 135.035604 97.133842 
L 135.118819 106.813477 
L 135.368464 78.234428 
L 135.451679 97.043888 
L 135.618109 83.601726 
L 135.701324 87.679166 
L 135.950968 62.699911 
L 136.034183 63.657046 
L 136.117398 83.755678 
L 136.200613 83.510331 
L 136.283828 87.595813 
L 136.367043 82.042096 
L 136.450258 62.722045 
L 136.533473 63.677155 
L 136.699903 42.846685 
L 136.949548 82.559628 
L 137.032763 89.218926 
L 137.115978 88.49033 
L 137.282408 79.762113 
L 137.448838 78.707061 
L 137.532053 97.474845 
L 137.615268 96.016071 
L 137.781698 63.520439 
L 138.031343 65.945653 
L 138.114558 78.383363 
L 138.197773 77.953234 
L 138.364203 96.430333 
L 138.447417 95.063803 
L 138.697062 70.100785 
L 138.780277 63.603886 
L 138.946707 72.738619 
L 139.113137 55.945084 
L 139.279567 66.374444 
L 139.362782 48.438786 
L 139.445997 58.115377 
L 139.529212 52.678183 
L 139.612427 54.521017 
L 139.778857 65.191007 
L 139.862072 59.127992 
L 140.028502 69.01913 
L 140.111717 62.617509 
L 140.194932 82.808463 
L 140.278147 75.187345 
L 140.361362 82.498401 
L 140.444577 82.363595 
L 140.527792 74.781741 
L 140.611007 82.128649 
L 140.694222 82.026496 
L 140.943867 81.771026 
L 141.110296 74.177042 
L 141.276726 74.064822 
L 141.526371 95.478573 
L 141.609586 100.995113 
L 141.692801 99.224334 
L 141.859231 88.679531 
L 142.025661 86.115396 
L 142.108876 92.459918 
L 142.275306 83.058392 
L 142.608166 118.973593 
L 142.691381 115.612702 
L 142.774596 116.858588 
L 142.857811 108.71544 
L 142.941026 118.030556 
L 143.024241 107.293666 
L 143.107456 111.765234 
L 143.357101 87.056948 
L 143.440316 93.318093 
L 143.606746 72.001602 
L 143.689961 79.594124 
L 143.773175 72.255999 
L 143.939605 90.655145 
L 144.02282 89.798242 
L 144.106035 93.326813 
L 144.272465 119.933257 
L 144.35568 109.027566 
L 144.438895 117.655444 
L 144.605325 110.191818 
L 144.771755 133.947401 
L 145.104615 95.049574 
L 145.271045 92.668085 
L 145.35426 72.403516 
L 145.437475 72.500595 
L 145.52069 80.048829 
L 145.603905 72.669693 
L 145.68712 80.202962 
L 145.770335 72.810124 
L 145.85355 72.871134 
L 146.103195 58.933498 
L 146.18641 60.881302 
L 146.352839 64.275342 
L 146.519269 77.824601 
L 146.602484 58.871809 
L 146.685699 60.165237 
L 146.852129 62.419008 
L 147.184989 87.398252 
L 147.351419 85.048163 
L 147.434634 79.716498 
L 147.517849 91.596294 
L 147.601064 90.655316 
L 147.767494 69.785182 
L 147.850709 77.573412 
L 147.933924 58.641982 
L 148.017139 59.955444 
L 148.266784 81.428687 
L 148.349999 62.156082 
L 148.516429 94.032859 
L 148.599644 85.41593 
L 148.682859 84.361545 
L 148.849289 101.755045 
L 149.098933 75.158517 
L 149.182148 68.210531 
L 149.265363 87.908561 
L 149.348578 79.832988 
L 149.431793 86.732587 
L 149.681438 53.049232 
L 149.931083 69.597272 
L 150.180728 50.799168 
L 150.513588 78.828569 
L 150.596803 59.784797 
L 150.680018 60.996767 
L 150.763233 69.562108 
L 150.929663 53.296674 
L 151.179308 68.923984 
L 151.262523 76.788287 
L 151.345738 57.9247 
L 151.428953 59.301104 
L 151.595382 72.42952 
L 151.761812 80.069191 
L 151.845027 80.147008 
L 152.094672 58.789307 
L 152.177887 65.059375 
L 152.344317 55.754146 
L 152.427532 45.551358 
L 152.510747 48.021936 
L 152.593962 50.274029 
L 152.677177 59.787656 
L 152.760392 54.198336 
L 152.843607 55.904216 
L 152.926822 53.148828 
L 153.010037 55.607311 
L 153.093252 46.077261 
L 153.259682 62.702416 
L 153.426112 43.285671 
L 153.509327 39.155703 
L 153.758972 47.482546 
L 153.842187 69.014233 
L 153.925402 62.608975 
L 154.091832 53.718003 
L 154.175047 74.698268 
L 154.258261 67.790368 
L 154.341476 75.75501 
L 154.507906 58.442282 
L 154.757551 80.282473 
L 154.840766 72.880788 
L 155.090411 91.219169 
L 155.173626 78.539929 
L 155.256841 78.753079 
L 155.340056 71.486707 
L 155.423271 79.124518 
L 155.506486 71.825322 
L 155.589701 71.972529 
L 155.672916 72.106724 
L 155.756131 67.918681 
L 155.839346 69.071188 
L 156.005776 71.079479 
L 156.172206 87.788704 
L 156.255421 98.295242 
L 156.338636 84.330673 
L 156.505066 100.688829 
L 156.671496 79.161706 
L 156.754711 86.120842 
L 156.837926 66.432244 
L 156.92114 67.056565 
L 157.004355 79.396581 
L 157.08757 78.874409 
L 157.170785 85.858981 
L 157.254 77.964555 
L 157.337215 85.0296 
L 157.42043 77.208561 
L 157.75329 104.029794 
L 157.836505 101.98904 
L 158.002935 90.972564 
L 158.25258 109.233829 
L 158.41901 103.192017 
L 158.502225 108.026106 
L 158.668655 95.98931 
L 158.75187 94.000002 
L 159.001515 128.768216 
L 159.08473 124.539871 
L 159.25116 109.711623 
L 159.334375 106.50885 
L 159.41759 91.818822 
L 159.500804 97.658762 
L 159.584019 96.181694 
L 159.667234 87.374971 
L 159.916879 102.198808 
L 160.249739 55.883525 
L 160.332954 57.441285 
L 160.416169 58.8613 
L 160.499384 67.615945 
L 160.582599 49.565443 
L 160.749029 65.381702 
L 160.832244 61.789495 
L 160.998674 75.759538 
L 161.081889 76.219431 
L 161.165104 69.178562 
L 161.248319 77.020848 
L 161.331534 65.59911 
L 161.414749 66.957627 
L 161.497964 60.73596 
L 161.581179 69.324912 
L 161.664394 62.893951 
L 161.747609 71.292073 
L 161.830824 64.687206 
L 161.914039 72.926752 
L 162.163683 56.686654 
L 162.246898 58.173832 
L 162.330113 78.759334 
L 162.413328 71.494313 
L 162.496543 79.131913 
L 162.579758 71.834008 
L 162.662973 79.44158 
L 162.746188 72.116355 
L 162.829403 72.239121 
L 162.995833 79.912925 
L 163.079048 72.546151 
L 163.162263 72.630991 
L 163.245478 72.708349 
L 163.411908 80.302959 
L 163.495123 80.361599 
L 163.578338 72.955352 
L 163.661553 73.004131 
L 163.744768 73.048615 
L 163.994413 51.610682 
L 164.160843 73.500728 
L 164.244058 66.701521 
L 164.327273 67.303549 
L 164.410488 67.852357 
L 164.493703 75.812207 
L 164.576918 64.498986 
L 164.660133 65.955575 
L 164.743347 59.823862 
L 164.909777 80.3255 
L 164.992992 80.382524 
L 165.076207 72.975079 
L 165.159422 73.022519 
L 165.242637 73.065786 
L 165.325852 80.564646 
L 165.409067 61.372209 
L 165.658712 86.813912 
L 165.741927 81.328036 
L 165.825142 93.065517 
L 165.908357 84.536793 
L 165.991572 91.021246 
L 166.158002 81.863401 
L 166.241217 88.584296 
L 166.324432 76.14251 
L 166.407647 76.569819 
L 166.490862 76.959358 
L 166.574077 69.855304 
L 166.657292 77.638192 
L 166.740507 66.164674 
L 166.823722 67.474497 
L 166.906937 61.209402 
L 166.990152 62.297849 
L 167.073367 58.980592 
L 167.323012 24.581299 
L 167.489441 32.854294 
L 167.655871 57.915384 
L 167.739086 52.496055 
L 167.822301 54.355329 
L 167.905516 63.509103 
L 167.988731 53.285838 
L 168.071946 67.50319 
L 168.238376 51.595124 
L 168.321591 60.993043 
L 168.654451 37.225605 
L 168.737666 40.435613 
L 168.820881 39.052499 
L 168.987311 26.914169 
L 169.320171 58.578397 
L 169.403386 53.101222 
L 169.486601 54.907465 
L 169.653031 68.781962 
L 169.819461 54.547828 
L 169.902676 56.885848 
L 169.98589 70.784736 
L 170.069105 64.228377 
L 170.15232 65.050746 
L 170.31875 66.483801 
L 170.401965 78.874261 
L 170.48518 78.401477 
L 170.568395 77.970523 
L 170.65161 65.810295 
L 170.81804 74.57351 
L 170.98447 75.657852 
L 171.067685 68.670961 
L 171.234115 76.95069 
L 171.31733 77.307798 
L 171.48376 66.162945 
L 171.566975 67.474144 
L 171.65019 61.211229 
L 171.81662 70.752204 
L 172.066265 73.235348 
L 172.14948 54.696138 
L 172.31591 65.338633 
L 172.399125 59.264865 
L 172.731984 101.596953 
L 172.981629 96.599533 
L 173.064844 87.76137 
L 173.148059 93.961158 
L 173.231274 81.047578 
L 173.314489 92.809449 
L 173.397704 72.539888 
L 173.564134 80.166092 
L 173.647349 72.781415 
L 173.730564 80.305997 
L 173.813779 72.908995 
L 173.896994 92.188873 
L 173.980209 91.198852 
L 174.146639 100.199706 
L 174.313069 89.495253 
L 174.396284 88.083957 
L 174.479499 75.03101 
L 174.562714 82.35665 
L 174.729144 52.176417 
L 174.812359 73.289655 
L 174.895574 66.513383 
L 175.062004 67.700853 
L 175.311648 87.300037 
L 175.394863 86.742502 
L 175.478078 67.010284 
L 175.561293 86.811572 
L 175.644508 86.297251 
L 175.727723 74.062122 
L 175.810938 74.675324 
L 175.894153 75.234305 
L 175.977368 87.510127 
L 176.060583 86.934056 
L 176.143798 86.408937 
L 176.227013 97.696509 
L 176.393443 87.415706 
L 176.476658 86.188483 
L 176.559873 92.527396 
L 176.643088 72.283812 
L 176.809518 79.953556 
L 176.975948 80.129838 
L 177.142378 61.052539 
L 177.225593 81.380542 
L 177.392023 69.549403 
L 177.475238 70.561713 
L 177.558453 59.718322 
L 177.641668 73.36623 
L 177.891312 57.033578 
L 178.057742 67.281336 
L 178.390602 43.566066 
L 178.640247 79.8363 
L 178.723462 72.481293 
L 178.806677 84.340961 
L 178.889892 83.385634 
L 178.973107 89.972366 
L 179.222752 68.571457 
L 179.472397 69.776007 
L 179.638827 89.635746 
L 179.722042 81.414029 
L 179.805257 88.175081 
L 179.971687 67.737459 
L 180.054902 68.250365 
L 180.304547 69.532571 
L 180.387762 77.344325 
L 180.470977 70.209484 
L 180.554191 70.503722 
L 180.637406 78.229578 
L 180.720621 71.016407 
L 180.887051 83.208706 
L 181.053481 81.573554 
L 181.136696 100.086771 
L 181.219911 79.174209 
L 181.303126 86.133251 
L 181.469556 77.806598 
L 181.552771 77.428847 
L 181.635986 84.542216 
L 181.802416 76.484399 
L 181.885631 95.447729 
L 181.968846 94.169357 
L 182.135276 91.941729 
L 182.218491 83.515579 
L 182.301706 101.85715 
L 182.384921 100.011891 
L 182.551351 78.612632 
L 182.634566 85.621235 
L 182.717781 85.211722 
L 182.800996 84.838408 
L 182.967426 76.729971 
L 183.050641 72.138354 
L 183.133855 53.696509 
L 183.71636 118.416663 
L 183.799575 95.881876 
L 183.88279 101.363192 
L 184.04922 90.460701 
L 184.132435 96.421408 
L 184.465295 62.641132 
L 184.54851 71.061983 
L 184.631725 64.481445 
L 184.71494 72.739537 
L 184.798155 66.01058 
L 184.88137 66.67526 
L 184.964585 74.739324 
L 185.21423 57.028496 
L 185.297445 58.487386 
L 185.463875 68.487742 
L 185.630305 70.60004 
L 185.71352 52.292561 
L 185.879949 63.340001 
L 186.212809 68.800415 
L 186.296024 50.651686 
L 186.379239 71.900191 
L 186.462454 65.244771 
L 186.545669 61.667634 
L 186.628884 44.149448 
L 186.712099 46.746921 
L 186.795314 56.573178 
L 186.878529 51.273015 
L 186.961744 53.240464 
L 187.044959 43.266199 
L 187.128174 65.167981 
L 187.294604 37.887275 
L 187.461034 62.096561 
L 187.544249 56.307692 
L 187.627464 69.597626 
L 187.710679 58.176504 
L 187.793894 66.991943 
L 187.877109 60.770026 
L 187.960324 61.897395 
L 188.043539 62.925048 
L 188.209969 72.174445 
L 188.293184 65.494062 
L 188.459613 74.309103 
L 188.542828 55.671737 
L 188.626043 57.249817 
L 188.709258 77.915301 
L 188.875688 55.936851 
L 188.958903 50.692167 
L 189.042118 60.169397 
L 189.125333 54.550355 
L 189.374978 70.918168 
L 189.458193 71.147768 
L 189.541408 59.588685 
L 189.624623 60.820161 
L 189.707838 69.401703 
L 190.040698 51.435569 
L 190.290343 68.378148 
L 190.373558 62.032755 
L 190.456773 63.047933 
L 190.539988 71.432426 
L 190.706418 50.548398 
L 190.789633 53.238774 
L 190.872848 48.232062 
L 191.288922 57.599919 
L 191.455352 78.476802 
L 191.538567 78.697252 
L 191.621782 71.438942 
L 191.704997 71.622095 
L 191.788212 91.017158 
L 191.871427 90.128564 
L 191.954642 81.859247 
L 192.037857 88.580134 
L 192.204287 79.834092 
L 192.287502 79.274726 
L 192.370717 66.995858 
L 192.453932 86.800135 
L 192.537147 78.825009 
L 192.620362 85.814202 
L 192.870007 66.451067 
L 192.953222 74.534528 
L 193.202867 56.866065 
L 193.452512 60.902072 
L 193.702156 92.967427 
L 193.868586 90.938633 
L 194.035016 81.793247 
L 194.201446 80.392319 
L 194.284661 87.242863 
L 194.367876 74.918433 
L 194.451091 75.453187 
L 194.534306 75.940646 
L 194.700736 99.287874 
L 194.783951 97.667501 
L 194.867166 96.190419 
L 194.950381 99.153724 
L 195.116811 113.006022 
L 195.200026 102.71283 
L 195.283241 107.589451 
L 195.366456 105.234866 
L 195.532886 71.17423 
L 195.616101 71.380283 
L 195.699316 71.568107 
L 195.782531 79.198981 
L 195.865746 71.895373 
L 195.948961 72.037625 
L 196.115391 79.74517 
L 196.198606 60.623685 
L 196.28182 61.762715 
L 196.365035 51.03147 
L 196.44825 53.018779 
L 196.531465 54.830333 
L 196.61468 44.712117 
L 196.697895 54.717992 
L 196.78111 37.809664 
L 196.94754 51.303386 
L 197.030755 46.466598 
L 197.2804 72.253302 
L 197.363615 65.563802 
L 197.44683 73.725688 
L 197.530045 55.136351 
L 197.77969 78.820377 
L 197.94612 49.22443 
L 198.029335 51.371546 
L 198.11255 60.788547 
L 198.27898 34.240886 
L 198.44541 40.878241 
L 198.528625 51.223251 
L 198.61184 46.393579 
L 198.695055 56.250845 
L 198.861485 42.240021 
L 199.111129 68.01121 
L 199.194344 69.156706 
L 199.443989 93.569987 
L 199.610419 83.979273 
L 199.693634 83.052955 
L 199.776849 89.668285 
L 199.943279 65.698667 
L 200.109709 79.00812 
L 200.276139 49.381023 
L 200.359354 58.974189 
L 200.442569 53.459305 
L 200.525784 62.691813 
L 200.608999 45.078698 
L 200.692214 55.05237 
L 200.775429 49.884386 
L 200.858644 51.973423 
L 201.108289 78.745271 
L 201.191504 66.512593 
L 201.274719 74.59078 
L 201.357934 67.69503 
L 201.441149 68.20905 
L 201.524363 68.677621 
L 201.607578 64.795004 
L 201.690793 66.225222 
L 201.774008 60.069396 
L 201.857223 61.257869 
L 202.106868 75.99839 
L 202.606158 74.937415 
L 202.689373 74.811163 
L 202.772588 70.386403 
L 202.855803 71.322341 
L 203.022233 72.953274 
L 203.105448 77.971924 
L 203.188663 77.577411 
L 203.271878 65.448748 
L 203.355093 66.161778 
L 203.771168 68.885695 
L 203.937598 92.164945 
L 204.020813 90.515425 
L 204.187242 76.91309 
L 204.353672 65.610367 
L 204.436887 66.309337 
L 204.520102 66.946512 
L 204.603317 74.986571 
L 204.686532 68.056852 
L 204.852962 80.748266 
L 205.019392 57.028965 
L 205.185822 67.275244 
L 205.352252 57.82269 
L 205.435467 59.870264 
L 205.518682 54.277707 
L 205.601897 55.979188 
L 205.768327 58.9441 
L 205.851542 67.691981 
L 206.184402 43.838684 
L 206.267617 46.46355 
L 206.517262 71.304226 
L 206.600477 72.159835 
L 206.683692 53.71273 
L 206.766907 55.464505 
L 207.016551 59.844029 
L 207.182981 73.924415 
L 207.349411 73.8565 
L 207.599056 101.74017 
L 207.682271 92.445736 
L 207.765486 98.231007 
L 207.848701 89.24699 
L 207.931916 107.082984 
L 208.098346 80.175888 
L 208.181561 80.247327 
L 208.264776 72.853913 
L 208.347991 72.913332 
L 208.431206 80.426043 
L 208.514421 73.016939 
L 208.680851 91.28852 
L 208.930496 88.789646 
L 209.013711 68.873601 
L 209.263356 99.955116 
L 209.429785 78.563444 
L 209.513 85.57655 
L 209.67943 66.615844 
L 209.84586 67.784717 
L 209.929075 75.751093 
L 210.17872 37.29167 
L 210.261935 28.729479 
L 210.34515 32.691664 
L 210.761225 75.78919 
L 210.84444 64.482291 
L 210.927655 65.942326 
L 211.01087 79.040157 
L 211.1773 56.87704 
L 211.34373 64.222089 
L 211.593375 66.480951 
L 211.67659 74.562782 
L 211.759805 67.673646 
L 211.926235 86.848692 
L 212.00945 78.873133 
L 212.092664 90.167809 
L 212.175879 88.697061 
L 212.259094 87.356402 
L 212.342309 93.592108 
L 212.425524 85.02035 
L 212.591954 113.029319 
L 212.758384 89.430513 
L 212.841599 95.482813 
L 212.924814 94.201714 
L 213.008029 97.34258 
L 213.091244 95.237522 
L 213.257674 109.752811 
L 213.673749 70.09572 
L 213.840179 59.95257 
L 213.923394 61.154311 
L 214.006609 69.707308 
L 214.089824 63.248404 
L 214.173039 64.158719 
L 214.256254 72.446027 
L 214.339469 65.744998 
L 214.422684 66.434572 
L 214.672328 97.158843 
L 214.755543 88.272423 
L 214.921973 115.731072 
L 215.005188 105.202251 
L 215.088403 109.859831 
L 215.171618 95.541802 
L 215.254833 106.02169 
L 215.338048 103.808951 
L 215.504478 89.227979 
L 215.587693 81.043125 
L 215.670908 99.603022 
L 215.754123 97.957973 
L 215.837338 96.458411 
L 216.003768 83.120221 
L 216.170198 75.304847 
L 216.503058 113.620222 
L 216.752703 87.526821 
L 216.919133 85.163216 
L 217.002348 79.827384 
L 217.085563 79.931309 
L 217.168778 91.791627 
L 217.251993 90.837489 
L 217.418422 81.717712 
L 217.501637 88.452181 
L 217.584852 87.79338 
L 217.668067 79.735667 
L 217.751282 86.645416 
L 217.834497 78.689234 
L 217.917712 85.691522 
L 218.000927 85.276871 
L 218.084142 84.89889 
L 218.250572 76.783103 
L 218.583432 114.640685 
L 218.666647 111.665906 
L 218.749862 113.262553 
L 218.916292 102.240036 
L 219.082722 76.159325 
L 219.165937 88.353136 
L 219.249152 87.703082 
L 219.415582 97.295358 
L 219.748442 63.253045 
L 219.831657 71.620363 
L 219.998086 55.02412 
L 220.081301 64.119161 
L 220.164516 58.15502 
L 220.247731 59.516011 
L 220.414161 80.069768 
L 220.497376 72.695009 
L 220.663806 80.295787 
L 220.830236 80.415089 
L 220.913451 73.009752 
L 220.996666 84.822582 
L 221.163096 72.190845 
L 221.246311 60.544901 
L 221.412741 70.199555 
L 221.495956 71.154773 
L 221.579171 83.791127 
L 221.662386 83.544359 
L 221.745601 75.862175 
L 221.912031 94.693055 
L 221.995246 93.482148 
L 222.078461 92.378318 
L 222.244891 82.997587 
L 222.328106 82.161437 
L 222.411321 69.633525 
L 222.494536 69.979207 
L 222.57775 89.517309 
L 222.660965 81.306755 
L 222.74418 99.843121 
L 222.827395 98.176676 
L 222.993825 95.272833 
L 223.160255 85.402504 
L 223.24347 84.353556 
L 223.493115 99.91382 
L 223.57633 98.241019 
L 223.659545 108.482001 
L 223.74276 98.594064 
L 224.07562 118.799054 
L 224.158835 115.456051 
L 224.325265 102.173306 
L 224.40848 99.641032 
L 224.491695 104.790154 
L 224.658125 93.310279 
L 224.74134 91.561725 
L 224.824555 97.425303 
L 224.990985 75.424126 
L 225.0742 82.714793 
L 225.157415 82.562658 
L 225.323844 63.073712 
L 225.407059 71.45655 
L 225.656704 55.586194 
L 225.823134 66.078102 
L 225.906349 59.939393 
L 225.989564 61.141691 
L 226.072779 62.237648 
L 226.239209 75.913742 
L 226.405639 75.511453 
L 226.488854 82.794312 
L 226.572069 82.634869 
L 226.738499 59.864521 
L 226.821714 54.274996 
L 226.904929 63.435851 
L 227.154574 49.509478 
L 227.237789 59.091752 
L 227.321004 53.570412 
L 227.404219 55.335669 
L 227.487434 64.402702 
L 227.653864 47.98198 
L 227.737079 50.241387 
L 227.820293 52.300972 
L 227.903508 61.636361 
L 227.986723 55.889801 
L 228.236368 90.119265 
L 228.319583 81.853756 
L 228.486013 99.671519 
L 228.652443 78.328681 
L 228.735658 77.904237 
L 228.902088 96.389644 
L 229.068518 75.601335 
L 229.151733 87.185028 
L 229.234948 85.977287 
L 229.401378 73.146286 
L 229.484593 73.180008 
L 229.567808 92.436004 
L 229.734238 83.042128 
L 229.817453 82.200662 
L 229.900668 93.200763 
L 230.150313 67.924516 
L 230.233528 75.878136 
L 230.316743 88.096947 
L 230.566387 57.368154 
L 230.816032 73.054094 
L 230.982462 92.359397 
L 231.065677 91.353336 
L 231.148892 90.436236 
L 231.232107 101.367658 
L 231.315322 99.564918 
L 231.481752 85.696755 
L 231.564967 85.27982 
L 231.731397 77.09484 
L 231.897827 98.9855 
L 231.981042 104.192193 
L 232.147472 89.541496 
L 232.230687 88.78445 
L 232.313902 76.326709 
L 232.397117 76.738281 
L 232.563547 77.455427 
L 232.646762 82.076313 
L 232.729977 100.546038 
L 232.813192 91.35719 
L 232.979622 118.295455 
L 233.229266 92.008082 
L 233.478911 77.745731 
L 233.562126 77.37204 
L 233.645341 65.26352 
L 233.728556 65.99367 
L 233.978201 107.551356 
L 234.061416 97.74269 
L 234.144631 103.059209 
L 234.311061 91.867691 
L 234.560706 87.417469 
L 234.643921 81.879047 
L 234.727136 93.567335 
L 234.810351 84.995167 
L 234.976781 101.241133 
L 235.143211 75.319975 
L 235.226426 68.361406 
L 235.392856 76.69186 
L 235.476071 69.611925 
L 235.559286 69.957302 
L 235.642501 89.499137 
L 235.725715 88.745401 
L 235.80893 68.831268 
L 235.892145 69.245648 
L 235.97536 69.62337 
L 236.058575 65.658331 
L 236.14179 47.78581 
L 236.30822 74.63136 
L 236.391435 81.991676 
L 236.557865 74.360993 
L 236.64108 74.28631 
L 236.724295 81.677142 
L 236.80751 81.615081 
L 236.890725 74.099582 
L 236.97394 81.506928 
L 237.14037 73.958114 
L 237.223585 73.919036 
L 237.390015 85.619271 
L 237.47323 72.780591 
L 237.556445 72.845637 
L 237.63966 72.90493 
L 237.80609 92.235567 
L 237.97252 82.873023 
L 238.055735 89.504503 
L 238.13895 88.750202 
L 238.222165 92.372009 
L 238.305379 90.704478 
L 238.388594 96.643382 
L 238.555024 83.267 
L 238.638239 75.605327 
L 238.721454 82.879534 
L 238.804669 82.71111 
L 238.887884 86.866986 
L 239.054314 73.882359 
L 239.137529 81.308947 
L 239.220744 73.820439 
L 239.303959 81.252509 
L 239.387174 73.769002 
L 239.553604 91.912901 
L 239.720034 90.063892 
L 239.803249 81.801165 
L 239.886464 92.836879 
L 240.052894 67.074724 
L 240.136109 86.87176 
L 240.219324 86.350321 
L 240.385754 77.982751 
L 240.468969 77.587789 
L 240.718614 62.512115 
L 240.885044 76.361046 
L 241.051473 58.954682 
L 241.217903 68.875459 
L 241.384333 48.425262 
L 241.467548 51.303987 
L 241.550763 65.696432 
L 241.800408 51.21613 
L 241.883623 53.188467 
L 241.966838 43.218154 
L 242.050053 53.356712 
L 242.133268 44.031203 
L 242.216483 47.29864 
L 242.299698 38.508951 
L 242.549343 69.315649 
L 242.632558 70.347116 
L 242.715773 63.828579 
L 242.798988 83.912619 
L 242.882203 76.194444 
L 242.965418 83.416798 
L 243.048633 83.201286 
L 243.131848 63.778057 
L 243.215063 64.639749 
L 243.298278 65.425255 
L 243.381493 73.600035 
L 243.464708 66.794064 
L 243.547923 67.389107 
L 243.631137 67.931552 
L 243.963997 108.529757 
L 244.130427 96.4142 
L 244.213642 101.848487 
L 244.296857 100.003205 
L 244.380072 102.630311 
L 244.463287 111.824056 
L 244.546502 108.437017 
L 244.712932 120.720638 
L 244.796147 109.747938 
L 245.045792 123.457247 
L 245.129007 119.041515 
L 245.212222 122.474773 
L 245.295437 130.5731 
L 245.461867 114.731716 
L 245.545082 118.546127 
L 245.628297 115.224389 
L 245.711512 104.738034 
L 245.794727 109.436262 
L 245.877942 106.920209 
L 246.044372 95.077646 
L 246.127587 93.171875 
L 246.294016 86.582716 
L 246.377231 86.087835 
L 246.543661 77.767257 
L 246.626876 84.850735 
L 246.710091 84.509087 
L 246.793306 76.739415 
L 246.876521 83.913809 
L 246.959736 83.655068 
L 247.042951 83.419231 
L 247.126166 87.51323 
L 247.209381 86.27665 
L 247.292596 85.14944 
L 247.375811 79.812986 
L 247.542241 50.060138 
L 247.625456 59.594015 
L 247.708671 54.028063 
L 247.791886 55.752934 
L 247.875101 57.325283 
L 247.958316 66.216689 
L 248.041531 60.065182 
L 248.124746 61.256235 
L 248.457606 95.007548 
L 248.540821 93.768065 
L 248.624036 96.947052 
L 248.707251 114.101289 
L 248.790466 111.173265 
L 248.87368 108.504199 
L 249.04011 85.66935 
L 249.123325 92.054183 
L 249.20654 91.076021 
L 249.289755 90.184382 
L 249.456185 81.1729 
L 249.5394 80.497576 
L 249.789045 57.265491 
L 249.87226 54.395832 
L 249.955475 56.748222 
L 250.121905 42.663774 
L 250.20512 64.618381 
L 250.288335 46.842731 
L 250.454765 58.81356 
L 250.621195 62.563822 
L 250.70441 75.960333 
L 250.787625 68.948247 
L 250.87084 76.812004 
L 250.954055 69.724675 
L 251.03727 70.062225 
L 251.120485 89.593619 
L 251.2037 81.376034 
L 251.286915 88.140748 
L 251.37013 87.509227 
L 251.453344 91.242122 
L 251.786204 85.763864 
L 251.869419 72.917265 
L 252.202279 111.023579 
L 252.285494 108.368578 
L 252.451924 85.559741 
L 252.535139 91.954541 
L 252.618354 90.986027 
L 252.701569 90.103184 
L 252.867999 76.799253 
L 253.117644 87.595698 
L 253.284074 86.481471 
L 253.367289 90.3055 
L 253.450504 108.04612 
L 253.616934 84.25231 
L 253.866579 121.38006 
L 254.199438 108.883379 
L 254.282653 87.195825 
L 254.365868 93.446026 
L 254.449083 84.889013 
L 254.532298 95.651466 
L 254.615513 81.931771 
L 254.865158 107.856928 
L 255.114803 84.112021 
L 255.364448 81.550795 
L 255.530878 102.68817 
L 255.780523 85.845607 
L 256.113383 82.040767 
L 256.279813 98.787136 
L 256.363028 89.758292 
L 256.446243 100.090043 
L 256.695888 83.878093 
L 256.779102 82.965084 
L 257.028747 98.863625 
L 257.111962 97.284825 
L 257.195177 100.153718 
L 257.278392 97.801408 
L 257.444822 112.923811 
L 257.611252 100.072397 
L 257.694467 116.948571 
L 257.860897 103.41681 
L 258.027327 98.368678 
L 258.110542 84.409672 
L 258.193757 90.906331 
L 258.360187 59.288319 
L 258.443402 68.006607 
L 258.526617 49.935617 
L 258.609832 52.02448 
L 258.859477 78.786919 
L 259.025907 77.90263 
L 259.109122 96.739287 
L 259.192337 83.58397 
L 259.275552 95.121084 
L 259.358766 93.873396 
L 259.441981 85.279538 
L 259.525196 91.699291 
L 259.691626 82.436228 
L 259.774841 89.10743 
L 259.858056 88.391581 
L 260.024486 79.68772 
L 260.107701 86.601987 
L 260.190916 78.651233 
L 260.274131 85.657156 
L 260.440561 66.691532 
L 260.606991 67.852085 
L 260.690206 87.577477 
L 260.773421 86.996958 
L 260.856636 86.467785 
L 260.939851 97.749827 
L 261.189496 81.926183 
L 261.522356 52.647105 
L 261.688786 63.638347 
L 261.855216 48.39515 
L 261.938431 50.620348 
L 262.10486 43.773819 
L 262.188075 53.864166 
L 262.687365 30.222172 
L 263.020225 61.815948 
L 263.10344 56.057393 
L 263.186655 65.061486 
L 263.4363 50.75044 
L 263.519515 52.767497 
L 263.60273 62.062552 
L 263.685945 56.282271 
L 263.76916 57.810141 
L 263.93559 60.472498 
L 264.018805 69.086169 
L 264.10202 62.684811 
L 264.185235 71.102832 
L 264.351665 54.598456 
L 264.43488 56.275299 
L 264.518095 65.260163 
L 264.601309 54.889369 
L 264.684524 57.199918 
L 264.767739 71.070292 
L 264.850954 64.493586 
L 264.934169 65.295397 
L 265.100599 74.148859 
L 265.183814 67.299949 
L 265.267029 75.30987 
L 265.516674 57.473697 
L 265.599889 66.352613 
L 265.849534 48.369935 
L 265.932749 43.800931 
L 266.182394 61.742634 
L 266.265609 62.787869 
L 266.432039 83.829392 
L 266.598469 75.897983 
L 266.764899 64.779537 
L 266.931329 73.720441 
L 267.014544 74.365866 
L 267.097759 67.49809 
L 267.347403 88.189012 
L 267.513833 79.52084 
L 267.597048 90.757811 
L 267.680263 89.237189 
L 267.929908 63.896755 
L 268.179553 84.420833 
L 268.345983 64.626049 
L 268.429198 65.416478 
L 268.512413 85.356801 
L 268.595628 77.517234 
L 268.678843 84.623657 
L 268.762058 65.08521 
L 268.845273 73.29107 
L 268.928488 62.210881 
L 269.011703 63.874306 
L 269.094918 57.93463 
L 269.261348 78.756241 
L 269.344563 78.956489 
L 269.427778 71.683043 
L 269.510993 71.849454 
L 269.677423 79.595414 
L 269.843852 61.657101 
L 270.010282 82.889754 
L 270.093497 82.7245 
L 270.176712 82.57386 
L 270.259927 70.672943 
L 270.343142 71.588106 
L 270.509572 73.182814 
L 270.676002 85.231209 
L 270.759217 77.403004 
L 270.842432 84.519571 
L 270.925647 84.210225 
L 271.008862 64.708781 
L 271.092077 65.492071 
L 271.175292 85.425533 
L 271.258507 85.03609 
L 271.341722 84.681091 
L 271.424937 76.901603 
L 271.508152 95.826033 
L 271.591367 94.516828 
L 271.757797 73.016134 
L 271.841012 73.064779 
L 272.090657 73.186413 
L 272.340302 101.232462 
L 272.423517 91.989295 
L 272.506731 97.815912 
L 272.589946 96.330751 
L 272.673161 94.97693 
L 272.756376 86.286979 
L 272.839591 92.617871 
L 272.922806 72.373084 
L 273.006021 72.478606 
L 273.172451 72.662476 
L 273.505311 53.308687 
L 273.588526 55.100187 
L 273.671741 56.733266 
L 273.838171 82.065507 
L 273.921386 69.550454 
L 274.004601 69.905616 
L 274.254246 70.793515 
L 274.337461 59.275317 
L 274.420676 67.995007 
L 274.503891 61.691259 
L 274.587106 62.741464 
L 274.670321 63.698803 
L 274.836751 95.30935 
L 274.919966 86.590062 
L 275.003181 92.894164 
L 275.086396 84.388464 
L 275.16961 90.887262 
L 275.252825 90.014867 
L 275.33604 89.219623 
L 275.50247 80.378068 
L 275.585685 87.23152 
L 275.6689 86.682417 
L 275.752115 78.726054 
L 275.918545 96.032784 
L 276.084975 86.039445 
L 276.16819 92.39222 
L 276.251405 83.930892 
L 276.33462 94.777727 
L 276.417835 92.901895 
L 276.50105 91.191947 
L 276.584265 97.089049 
L 276.66748 95.668166 
L 276.750695 98.680522 
L 277.00034 71.051103 
L 277.3332 110.682344 
L 277.49963 105.668201 
L 277.66606 90.778499 
L 277.915704 58.469446 
L 277.998919 79.023815 
L 278.082134 71.744554 
L 278.165349 71.905557 
L 278.248564 91.271711 
L 278.331779 78.601655 
L 278.414994 78.815593 
L 278.498209 79.010607 
L 278.581424 71.732466 
L 278.664639 71.894509 
L 278.747854 91.261669 
L 278.831069 82.900085 
L 278.914284 89.530415 
L 278.997499 88.777836 
L 279.080714 80.635881 
L 279.413574 106.401252 
L 279.496789 104.156667 
L 279.580004 94.65463 
L 279.663219 112.009039 
L 279.746434 109.268507 
L 279.996079 91.693837 
L 280.079294 83.293857 
L 280.162509 89.889311 
L 280.245724 81.648887 
L 280.495368 97.867144 
L 280.578583 88.921149 
L 280.661798 95.018936 
L 280.745013 93.780822 
L 280.828228 96.959888 
L 281.161088 76.499424 
L 281.244303 88.662804 
L 281.327518 87.986724 
L 281.410733 87.370425 
L 281.493948 79.352539 
L 281.577163 86.296483 
L 281.660378 66.60971 
L 281.743593 86.444409 
L 281.910023 66.306971 
L 282.076453 74.989362 
L 282.159668 68.066284 
L 282.242883 68.552191 
L 282.326098 80.759017 
L 282.409313 68.358506 
L 282.492528 76.274694 
L 282.658958 65.312358 
L 282.742173 66.701145 
L 282.825388 56.203158 
L 282.908603 58.397517 
L 282.991817 60.397809 
L 283.158247 41.395735 
L 283.241462 44.899587 
L 283.324677 40.637387 
L 283.491107 46.202976 
L 283.574322 56.078513 
L 283.823967 33.131332 
L 283.907182 44.162896 
L 283.990397 39.965873 
L 284.156827 53.101259 
L 284.323257 39.640571 
L 284.489687 63.554661 
L 284.572902 57.642784 
L 284.656117 59.050543 
L 284.988977 94.940364 
L 285.072192 81.285741 
L 285.155407 88.058817 
L 285.238622 87.436132 
L 285.321837 86.868512 
L 285.488267 67.699694 
L 285.571482 68.218106 
L 285.654696 56.926752 
L 285.737911 58.3979 
L 285.821126 59.738948 
L 285.904341 49.197499 
L 285.987556 51.352228 
L 286.237201 78.278136 
L 286.320416 77.861126 
L 286.403631 84.937115 
L 286.486846 77.13451 
L 286.570061 88.582515 
L 286.653276 87.25426 
L 286.819706 96.703612 
L 286.902921 94.657175 
L 286.986136 81.027914 
L 287.069351 87.823861 
L 287.152566 79.76605 
L 287.235781 86.673597 
L 287.318996 86.173599 
L 287.402211 90.025548 
L 287.485426 107.789559 
L 287.568641 97.966131 
L 287.651856 107.57186 
L 287.735071 104.564353 
L 287.818286 101.822828 
L 287.901501 118.543502 
L 287.984716 115.225098 
L 288.067931 112.200162 
L 288.23436 87.709467 
L 288.317575 98.22223 
L 288.40079 96.041595 
L 288.484005 94.053815 
L 288.650435 120.533109 
L 288.73365 109.582794 
L 288.816865 113.85348 
L 288.983295 100.847074 
L 289.06651 110.19798 
L 289.23294 93.281755 
L 289.316155 98.994027 
L 289.39937 97.404531 
L 289.5658 87.178846 
L 289.649015 93.430833 
L 289.815445 83.87692 
L 289.981875 82.133635 
L 290.06509 77.068176 
L 290.148305 77.417725 
L 290.23152 77.736366 
L 290.314735 70.570881 
L 290.39795 78.291618 
L 290.481165 71.077053 
L 290.56438 90.516628 
L 290.647595 77.913294 
L 290.73081 89.951735 
L 290.814025 89.161959 
L 291.063669 67.968062 
L 291.146884 87.682573 
L 291.230099 79.637578 
L 291.479744 97.3844 
L 291.562959 76.717907 
L 291.646174 83.895064 
L 291.729389 83.640978 
L 291.895819 93.921438 
L 291.979034 73.561269 
L 292.062249 81.01759 
L 292.145464 69.254494 
L 292.228679 70.295189 
L 292.311894 63.787987 
L 292.395109 72.108633 
L 292.478324 61.133482 
L 292.727969 87.495678 
L 292.811184 86.923258 
L 292.894399 67.18221 
L 293.060829 75.717481 
L 293.310474 77.004415 
L 293.560118 58.760169 
L 293.643333 60.069765 
L 293.726548 68.719329 
L 293.892978 51.580494 
L 293.976193 53.525095 
L 294.142623 56.913636 
L 294.309053 67.185115 
L 294.641913 71.469235 
L 294.725128 60.551304 
L 294.808343 74.125216 
L 295.057988 57.620764 
L 295.141203 59.031453 
L 295.224418 79.536026 
L 295.307633 60.449372 
L 295.390848 80.828526 
L 295.557278 62.684085 
L 296.056568 67.325984 
L 296.139782 56.1158 
L 296.222997 57.659855 
L 296.306212 59.067393 
L 296.389427 79.568615 
L 296.472642 60.479845 
L 296.555857 61.638054 
L 296.639072 62.693859 
L 296.722287 71.111653 
L 296.805502 52.771042 
L 296.888717 54.611098 
L 296.971932 56.288461 
L 297.138362 77.388913 
L 297.221577 77.711245 
L 297.304792 70.549864 
L 297.388007 70.817767 
L 297.471222 78.517191 
L 297.554437 59.52226 
L 297.637652 60.765494 
L 297.720867 69.353952 
L 297.804082 62.931931 
L 297.887297 83.091092 
L 297.970512 71.147105 
L 298.053727 72.021706 
L 298.136942 77.126114 
L 298.220157 65.050531 
L 298.303372 65.805081 
L 298.386587 73.94792 
L 298.469802 55.357883 
L 298.553017 56.969715 
L 298.636232 58.43904 
L 298.969091 93.57176 
L 299.052306 91.804219 
L 299.135521 97.647846 
L 299.218736 96.179151 
L 299.301951 99.147358 
L 299.551596 132.659251 
L 299.801241 108.378382 
L 299.884456 110.267781 
L 299.967671 107.023924 
L 300.134101 90.650163 
L 300.217316 96.595901 
L 300.300531 95.220474 
L 300.383746 74.75071 
L 300.466961 86.409416 
L 300.716606 73.527092 
L 300.799821 73.532684 
L 300.883036 61.77652 
L 300.966251 62.821364 
L 301.132681 82.817609 
L 301.215896 75.206515 
L 301.299111 82.518131 
L 301.46554 70.508246 
L 301.63197 94.771919 
L 301.715185 93.558163 
L 301.881615 91.443239 
L 301.96483 83.069647 
L 302.048045 89.685916 
L 302.13126 69.706894 
L 302.46412 108.806478 
L 302.63055 114.834813 
L 302.79698 101.669271 
L 302.880195 118.401401 
L 302.96341 115.098191 
L 303.29627 104.559589 
L 303.4627 70.650274 
L 303.545915 78.364935 
L 303.62913 82.909065 
L 303.712345 82.085598 
L 303.79556 77.028453 
L 303.878775 77.38429 
L 303.96199 89.469137 
L 304.211634 64.946964 
L 304.294849 66.371316 
L 304.627709 70.915798 
L 304.794139 53.415544 
L 304.877354 55.200643 
L 304.960569 56.827906 
L 305.126999 70.383656 
L 305.293429 70.927655 
L 305.376644 78.617908 
L 305.459859 71.379762 
L 305.543074 71.576317 
L 305.626289 79.209212 
L 305.709504 67.612502 
L 305.792719 68.801458 
L 305.875934 81.645287 
L 305.959149 62.379596 
L 306.125579 71.730705 
L 306.208794 65.101936 
L 306.292009 85.067371 
L 306.458439 54.456253 
L 306.541654 56.149712 
L 306.624869 65.14697 
L 306.708083 47.340834 
L 306.791298 49.663642 
L 306.874513 70.994295 
L 307.040943 54.522685 
L 307.124158 56.210437 
L 307.290588 78.364509 
L 307.373803 71.149558 
L 307.540233 90.778132 
L 307.623448 89.918823 
L 307.706663 69.922666 
L 307.789878 70.248663 
L 307.956308 70.81679 
L 308.039523 90.27649 
L 308.122738 89.461663 
L 308.372383 59.480711 
L 308.455598 60.730348 
L 308.538813 73.62875 
L 308.622028 69.321143 
L 308.788458 71.306424 
L 308.871673 52.957134 
L 308.954888 62.236952 
L 309.038103 56.449 
L 309.121318 57.966934 
L 309.287747 60.612023 
L 309.454177 70.263072 
L 309.537392 63.765553 
L 309.620607 64.636582 
L 309.787037 73.607379 
L 309.870252 55.055392 
L 310.036682 65.646029 
L 310.286327 69.386831 
L 310.369542 82.178755 
L 310.452757 82.080718 
L 310.535972 81.991373 
L 310.619187 74.457169 
L 310.702402 81.835754 
L 310.785617 81.76814 
L 310.868832 81.706518 
L 310.952047 69.891869 
L 311.035262 70.880609 
L 311.118477 71.78193 
L 311.201692 65.150903 
L 311.368122 74.035331 
L 311.451337 55.446798 
L 311.534552 57.054095 
L 311.700982 59.854903 
L 311.950626 81.364922 
L 312.033841 62.128687 
L 312.117056 82.35582 
L 312.283486 62.928951 
L 312.533131 83.693574 
L 312.782776 64.888631 
L 312.865991 65.661321 
L 312.949206 73.817992 
L 313.032421 67.007816 
L 313.198851 75.579012 
L 313.282066 68.613231 
L 313.365281 88.266573 
L 313.448496 80.178806 
L 313.531711 87.051634 
L 313.698141 78.590034 
L 313.864571 77.751331 
L 313.947786 84.838863 
L 314.114216 72.4462 
L 314.197431 73.209902 
L 314.280646 62.148703 
L 314.53029 98.985591 
L 314.69672 95.959113 
L 314.86315 70.969638 
L 314.946365 71.86411 
L 315.02958 65.227639 
L 315.19601 84.817773 
L 315.279225 84.487645 
L 315.445655 98.935005 
L 315.52887 92.392186 
L 315.612085 95.697491 
L 315.6953 81.989285 
L 315.86173 98.745792 
L 315.944945 89.732321 
L 316.02816 100.065602 
L 316.111375 97.728148 
L 316.277805 105.411994 
L 316.36102 90.844925 
L 316.444235 96.774596 
L 316.610665 83.405502 
L 316.777095 71.256836 
L 316.943525 72.918751 
L 317.02674 85.397895 
L 317.109955 85.016727 
L 317.276384 66.184098 
L 317.359599 74.294731 
L 317.442814 67.444041 
L 317.526029 87.199864 
L 317.609244 86.659433 
L 317.775674 96.434602 
L 317.858889 87.626031 
L 317.942104 93.840429 
L 318.191749 72.579587 
L 318.358179 90.926769 
L 318.524609 77.507383 
L 318.774254 92.450353 
L 318.857469 109.994511 
L 318.940684 107.438342 
L 319.107114 113.700858 
L 319.273544 90.019997 
L 319.523189 104.215025 
L 319.606404 94.71865 
L 319.689619 100.305791 
L 319.939263 76.437736 
L 320.105693 105.888864 
L 320.355338 82.654136 
L 320.521768 100.337728 
L 320.688198 78.916027 
L 320.771413 78.44935 
L 321.021058 107.206876 
L 321.104273 97.445927 
L 321.270703 70.948428 
L 321.353918 71.18636 
L 321.437133 90.610832 
L 321.520348 89.768859 
L 321.769993 87.663938 
L 321.853208 91.387556 
L 322.102853 116.05931 
L 322.186068 112.966773 
L 322.269283 121.904018 
L 322.352498 118.294572 
L 322.518927 93.837045 
L 322.602142 92.050711 
L 322.685357 97.873676 
L 322.768572 77.181613 
L 322.851787 96.075886 
L 322.935002 94.750487 
L 323.101432 73.233162 
L 323.267862 92.509194 
L 323.351077 84.047788 
L 323.434292 90.578468 
L 323.517507 89.739164 
L 323.600722 77.217645 
L 323.683937 77.559896 
L 323.767152 77.871874 
L 323.850367 70.704837 
L 323.933582 78.415487 
L 324.016797 71.200354 
L 324.183227 79.063526 
L 324.266442 71.791055 
L 324.349657 71.954206 
L 324.432872 91.310874 
L 324.599302 71.414257 
L 324.682517 71.61071 
L 324.932162 111.795812 
L 325.098591 99.152985 
L 325.181806 104.347803 
L 325.265021 102.290699 
L 325.348236 104.720598 
L 325.431451 113.728122 
L 325.597881 91.928267 
L 325.681096 71.761226 
L 325.764311 71.926844 
L 325.847526 79.529357 
L 325.930741 72.215417 
L 326.013956 72.340849 
L 326.097171 79.90675 
L 326.180386 72.559413 
L 326.263601 91.862699 
L 326.346816 83.458019 
L 326.430031 94.345915 
L 326.513246 92.514204 
L 326.762891 106.103578 
L 327.095751 98.359629 
L 327.428611 65.07428 
L 327.511826 85.039615 
L 327.678255 76.919179 
L 327.76147 76.628475 
L 327.9279 94.290758 
L 328.011115 93.122765 
L 328.177545 83.635783 
L 328.26076 90.202755 
L 328.42719 58.735149 
L 328.59362 68.705063 
L 328.676835 62.347967 
L 328.76005 63.345824 
L 328.843265 76.012394 
L 328.92648 71.49659 
L 329.009695 72.344364 
L 329.09291 53.908433 
L 329.176125 63.104403 
L 329.25934 57.242618 
L 329.342555 58.692004 
L 329.508985 71.934835 
L 329.675415 79.673496 
L 329.75863 84.103438 
L 329.92506 59.859023 
L 330.174705 81.368556 
L 330.590779 81.263323 
L 330.840424 63.051201 
L 330.923639 63.987081 
L 331.006854 72.291898 
L 331.090069 65.617915 
L 331.173284 66.326857 
L 331.339714 67.562252 
L 331.506144 76.040509 
L 331.589359 76.486783 
L 331.755789 47.339108 
L 332.088649 85.910066 
L 332.171864 92.276236 
L 332.255079 91.286859 
L 332.421509 89.562903 
L 332.671154 58.530753 
L 332.837584 61.084879 
L 332.920798 50.438761 
L 333.004013 71.698455 
L 333.087228 65.077791 
L 333.170443 73.28645 
L 333.336873 55.398451 
L 333.420088 57.011869 
L 333.586518 59.823375 
L 333.669733 68.496809 
L 333.752948 50.403562 
L 333.836163 52.458918 
L 334.085808 57.597487 
L 334.169023 66.467909 
L 334.418668 51.849076 
L 334.501883 61.227967 
L 334.585098 55.534407 
L 334.751528 77.803485 
L 334.834743 66.339514 
L 335.167603 84.118122 
L 335.334033 82.349007 
L 335.417248 89.030706 
L 335.500463 69.123926 
L 335.583677 88.730463 
L 335.666892 88.05619 
L 335.750107 91.746103 
L 335.916537 85.423118 
L 335.999752 85.041511 
L 336.166182 76.926321 
L 336.249397 76.637419 
L 336.499042 66.148029 
L 336.582257 66.812587 
L 336.831902 86.639253 
L 336.998332 78.255272 
L 337.081547 85.299371 
L 337.164762 65.725317 
L 337.331192 74.517907 
L 337.414407 75.101627 
L 337.497622 68.183997 
L 337.580837 87.87278 
L 337.664052 87.275547 
L 337.747267 67.527798 
L 337.830482 68.071191 
L 337.913697 76.016174 
L 338.080127 58.715959 
L 338.246556 71.958889 
L 338.412986 72.249313 
L 338.496201 91.578091 
L 338.579416 90.653814 
L 338.662631 89.811353 
L 338.745846 93.347207 
L 338.829061 103.360739 
L 338.912276 100.735859 
L 339.245136 88.058287 
L 339.411566 79.438662 
L 339.577996 78.466132 
L 339.661211 97.24439 
L 339.827641 64.607628 
L 339.910856 65.410811 
L 339.994071 77.894943 
L 340.077286 65.771215 
L 340.160501 73.920142 
L 340.243716 67.110237 
L 340.326931 67.692399 
L 340.493361 68.706992 
L 340.576576 64.844903 
L 340.659791 47.08676 
L 340.82622 59.033628 
L 340.909435 60.989266 
L 340.99265 55.324016 
L 341.15908 76.590433 
L 341.242295 69.545749 
L 341.49194 92.069035 
L 341.65837 108.162573 
L 341.741585 105.773851 
L 341.8248 103.59645 
L 341.908015 94.164192 
L 341.99123 99.802491 
L 342.15766 78.491928 
L 342.407305 98.845764 
L 342.49052 96.622979 
L 342.573735 102.043956 
L 342.82338 96.978918 
L 343.15624 62.17738 
L 343.239455 74.947243 
L 343.32267 74.838688 
L 343.405885 74.7398 
L 343.572314 93.763086 
L 343.655529 92.649237 
L 343.738744 91.633957 
L 343.821959 83.262089 
L 343.905174 89.865001 
L 343.988389 81.649805 
L 344.154819 110.214257 
L 344.238034 107.645844 
L 344.321249 86.110294 
L 344.404464 92.461398 
L 344.487679 84.01715 
L 344.654109 101.472022 
L 344.737324 92.231179 
L 344.820539 109.788799 
L 344.903754 107.25846 
L 345.236614 59.522775 
L 345.319829 68.225477 
L 345.403044 73.673018 
L 345.486259 61.931449 
L 345.569474 70.421153 
L 345.652689 59.625889 
L 345.735904 61.532553 
L 345.985549 47.107311 
L 346.235193 53.567918 
L 346.318408 43.605877 
L 346.401623 53.716612 
L 346.484838 48.701521 
L 346.568053 62.66296 
L 346.651268 51.897167 
L 346.734483 53.829862 
L 346.817698 74.782583 
L 346.900913 56.15898 
L 347.067343 66.578105 
L 347.150558 67.871157 
L 347.233773 73.351015 
L 347.400203 103.31632 
L 347.566633 99.577614 
L 347.649848 109.697762 
L 347.733063 87.988228 
L 347.816278 94.174121 
L 347.899493 93.0271 
L 347.982708 84.537464 
L 348.065923 91.028601 
L 348.232353 81.924238 
L 348.315568 81.202603 
L 348.398783 68.800313 
L 348.481998 69.239512 
L 348.565213 65.339332 
L 348.648428 66.743063 
L 348.731642 48.834807 
L 348.814857 58.483723 
L 348.898072 48.749933 
L 348.981287 51.621193 
L 349.147717 37.437341 
L 349.314147 61.72915 
L 349.397362 56.009669 
L 349.480577 57.581125 
L 349.563792 59.013685 
L 349.647007 67.762692 
L 349.730222 49.766928 
L 349.979867 67.335036 
L 350.063082 67.905451 
L 350.229512 58.195506 
L 350.312727 59.57454 
L 350.479157 69.420252 
L 350.562372 63.022586 
L 350.728802 82.989336 
L 350.895232 64.547266 
L 350.978447 65.365258 
L 351.144877 74.232839 
L 351.311306 57.272766 
L 351.394521 58.734583 
L 351.477736 48.326074 
L 351.560951 69.762147 
L 351.644166 63.336179 
L 351.810596 84.288586 
L 351.977026 72.034144 
L 352.060241 72.849261 
L 352.226671 56.126762 
L 352.476316 60.417046 
L 352.559531 49.862353 
L 352.642746 51.981093 
L 352.809176 63.113961 
L 352.892391 57.278416 
L 353.058821 67.516094 
L 353.142036 68.732106 
L 353.225251 62.400387 
L 353.308466 75.149893 
L 353.391681 75.033062 
L 353.474896 82.366758 
L 353.558111 82.269802 
L 353.641326 74.741592 
L 353.807756 97.026367 
L 353.974185 89.845502 
L 354.0574 89.08764 
L 354.22383 80.327883 
L 354.307045 79.754162 
L 354.39026 86.670568 
L 354.473475 74.456705 
L 354.55669 75.060432 
L 354.639905 68.171779 
L 354.72312 87.849618 
L 354.806335 75.532289 
L 354.88955 76.041261 
L 354.972765 76.505338 
L 355.05598 88.664919 
L 355.139195 88.012669 
L 355.22241 79.979582 
L 355.305625 86.87639 
L 355.38884 78.944143 
L 355.472055 97.668511 
L 355.55527 96.220414 
L 355.638485 106.636169 
L 355.7217 104.395085 
L 355.804915 102.35227 
L 355.971345 76.360152 
L 356.05456 76.797141 
L 356.22099 92.553173 
L 356.38742 74.399877 
L 356.720279 76.538044 
L 356.803494 88.694321 
L 356.886709 80.604023 
L 356.969924 99.180152 
L 357.136354 76.988507 
L 357.385999 104.117048 
L 357.469214 94.663697 
L 357.552429 100.262431 
L 357.635644 98.586975 
L 357.802074 95.667697 
L 357.968504 63.377627 
L 358.051719 64.307112 
L 358.218149 65.926973 
L 358.384579 44.846107 
L 358.551009 57.192962 
L 358.634224 51.891773 
L 358.717439 53.837915 
L 358.800654 63.047878 
L 358.883869 57.229366 
L 358.967084 58.703756 
L 359.050299 60.047854 
L 359.133514 68.708743 
L 359.216728 62.390248 
L 359.299943 70.84401 
L 359.383158 52.605901 
L 359.549588 63.642534 
L 359.632803 65.208138 
L 359.799233 48.770969 
L 359.882448 50.994715 
L 359.965663 60.4567 
L 360.048878 43.139739 
L 360.132093 53.296598 
L 360.215308 48.343488 
L 360.298523 50.605739 
L 360.714598 106.948628 
L 360.881028 95.188962 
L 361.047458 110.757492 
L 361.297103 92.937682 
L 361.380318 91.914604 
L 361.629963 103.397173 
L 361.796393 98.417328 
L 361.962822 83.589643 
L 362.046037 82.736713 
L 362.129252 70.232314 
L 362.212467 70.561051 
L 362.378897 93.550462 
L 362.462112 99.249586 
L 362.545327 97.669571 
L 362.628542 96.229421 
L 362.794972 104.409288 
L 362.878187 102.373291 
L 362.961402 100.517483 
L 363.044617 110.551634 
L 363.127832 107.972647 
L 363.294262 84.321811 
L 363.377477 90.837411 
L 363.543907 89.241284 
L 363.793552 57.495048 
L 363.876767 66.383524 
L 364.126412 70.026934 
L 364.209627 82.75761 
L 364.292842 75.207369 
L 364.376057 94.253507 
L 364.459271 93.117581 
L 364.708916 90.27842 
L 364.875346 81.34961 
L 364.958561 88.128736 
L 365.041776 68.382022 
L 365.124991 68.878049 
L 365.208206 69.330371 
L 365.291421 88.895368 
L 365.374636 80.804627 
L 365.457851 87.632196 
L 365.541066 67.931309 
L 365.624281 68.467935 
L 365.707496 76.386801 
L 365.790711 69.403383 
L 365.873926 77.239609 
L 366.123571 60.143244 
L 366.373216 82.656862 
L 366.539646 64.33889 
L 366.622861 65.194968 
L 366.706076 73.403977 
L 366.789291 66.687125 
L 366.955721 87.075614 
L 367.12215 63.722637 
L 367.28858 66.721258 
L 367.45501 57.494659 
L 367.538225 59.614803 
L 367.62144 54.120262 
L 367.704655 55.882464 
L 367.871085 69.635153 
L 367.9543 77.452407 
L 368.037515 66.090829 
L 368.12073 67.451971 
L 368.28716 73.078554 
L 368.45359 73.244738 
L 368.62002 92.525592 
L 368.78645 72.555229 
L 368.95288 91.95288 
L 369.036095 91.028489 
L 369.11931 82.761022 
L 369.28574 99.397183 
L 369.45217 96.373062 
L 369.535385 87.634397 
L 369.6186 93.860962 
L 369.701814 92.769267 
L 369.785029 84.350336 
L 369.868244 90.867576 
L 370.117889 70.501919 
L 370.450749 99.450454 
L 370.617179 88.99996 
L 370.700394 95.106626 
L 370.783609 93.907325 
L 370.950039 84.396201 
L 371.033254 90.910319 
L 371.199684 71.233806 
L 371.366114 79.147132 
L 371.449329 71.940182 
L 371.782189 101.482495 
L 371.948619 90.697495 
L 372.031834 96.655255 
L 372.115049 87.902728 
L 372.198264 94.107856 
L 372.281479 85.581503 
L 372.364693 103.697806 
L 372.447908 82.618475 
L 372.531123 100.996554 
L 372.780768 78.205042 
L 373.030413 77.233159 
L 373.196843 54.350264 
L 373.363273 65.126211 
L 373.446488 66.586555 
L 373.696133 91.663023 
L 373.862563 67.603249 
L 373.945778 61.430425 
L 374.112208 82.712566 
L 374.195423 70.920664 
L 374.278638 71.871484 
L 374.361853 65.32381 
L 374.445068 73.52922 
L 374.528283 66.836038 
L 374.611498 67.493992 
L 374.777928 86.717262 
L 374.944358 78.455405 
L 375.110787 96.859877 
L 375.194002 88.107425 
L 375.277217 94.298593 
L 375.360432 85.773978 
L 375.443647 103.865481 
L 375.526862 101.907011 
L 375.610077 92.711023 
L 375.859722 110.601398 
L 375.942937 107.393416 
L 376.109367 113.495257 
L 376.275797 96.220207 
L 376.359012 94.286346 
L 376.442227 111.621345 
L 376.525442 108.980824 
L 376.608657 99.166165 
L 376.691872 104.380918 
L 376.775087 94.974484 
L 376.941517 109.553021 
L 377.024732 107.097576 
L 377.191162 95.41392 
L 377.274377 100.961388 
L 377.357592 80.177331 
L 377.440807 87.073196 
L 377.607236 96.835668 
L 377.690451 95.508316 
L 377.856881 93.196675 
L 378.023311 83.874092 
L 378.106526 102.124458 
L 378.189741 100.331647 
L 378.272956 91.29521 
L 378.356171 97.209036 
L 378.439386 88.450298 
L 378.522601 94.616136 
L 378.772246 72.450782 
L 378.855461 80.032773 
L 378.938676 61.122615 
L 379.105106 70.787748 
L 379.188321 71.773035 
L 379.271536 65.272835 
L 379.437966 74.239041 
L 379.604396 57.507118 
L 379.687611 59.016964 
L 379.854041 79.683028 
L 379.937256 72.490696 
L 380.020471 72.677228 
L 380.103686 80.24296 
L 380.186901 73.004191 
L 380.270115 80.541516 
L 380.35333 73.278474 
L 380.436545 80.792066 
L 380.51976 73.509187 
L 380.602975 92.666308 
L 380.68619 84.334778 
L 380.769405 90.871037 
L 380.85262 82.700629 
L 380.935835 89.381908 
L 381.102265 70.129864 
L 381.18548 70.535564 
L 381.35191 93.527085 
L 381.435125 91.864415 
L 381.51834 97.736823 
L 381.601555 96.356394 
L 381.8512 73.87308 
L 382.01763 85.679984 
L 382.100845 73.069286 
L 382.267275 103.014345 
L 382.433705 77.23584 
L 382.51692 77.678825 
L 382.600135 70.703524 
L 382.766565 83.054448 
L 382.932994 71.067249 
L 383.016209 71.409611 
L 383.099424 71.722748 
L 383.182639 79.384826 
L 383.432284 61.09826 
L 383.598714 85.687552 
L 383.765144 73.286049 
L 383.848359 73.443536 
L 383.931574 80.957428 
L 384.014789 73.721776 
L 384.098004 92.836104 
L 384.181219 91.919122 
L 384.264434 72.097166 
L 384.347649 79.732543 
L 384.430864 68.360622 
L 384.514079 69.615932 
L 384.597294 63.398903 
L 384.680509 64.445319 
L 384.763724 65.400604 
L 384.846939 73.632512 
L 385.096584 47.208752 
L 385.263014 59.325039 
L 385.346229 54.041946 
L 385.429444 63.285232 
L 385.595873 47.633046 
L 385.845518 64.962373 
L 386.011948 78.339984 
L 386.095163 78.093494 
L 386.178378 66.286857 
L 386.261593 86.036331 
L 386.344808 85.763546 
L 386.428023 78.178563 
L 386.511238 89.533179 
L 386.594453 76.733437 
L 386.677668 83.978932 
L 386.760883 83.898573 
L 386.844098 83.827479 
L 386.927313 76.434428 
L 387.010528 83.70971 
L 387.260173 55.102515 
L 387.343388 68.503744 
L 387.343388 68.503744 
" clip-path="url(#p2c5578c800)" style="fill: none; stroke: #1f77b4; stroke-width: 1.5; stroke-linecap: square"/>
   </g>
   <g id="patch_3">
    <path d="M 54.354531 139.811563 
L 54.354531 10.8 
" style="fill: none; stroke: #000000; stroke-width: 0.8; stroke-linejoin: miter; stroke-linecap: square"/>
   </g>
   <g id="patch_4">
    <path d="M 403.2 139.811563 
L 403.2 10.8 
" style="fill: none; stroke: #000000; stroke-width: 0.8; stroke-linejoin: miter; stroke-linecap: square"/>
   </g>
   <g id="patch_5">
    <path d="M 54.354531 139.811563 
L 403.2 139.811563 
" style="fill: none; stroke: #000000; stroke-width: 0.8; stroke-linejoin: miter; stroke-linecap: square"/>
   </g>
   <g id="patch_6">
    <path d="M 54.354531 10.8 
L 403.2 10.8 
" style="fill: none; stroke: #000000; stroke-width: 0.8; stroke-linejoin: miter; stroke-linecap: square"/>
   </g>
  </g>
 </g>
 <defs>
  <clipPath id="p2c5578c800">
   <rect x="54.354531" y="10.8" width="348.845469" height="129.011562"/>
  </clipPath>
 </defs>
</svg>
